<mxfile host="app.diagrams.net" agent="Mozilla/5.0 (X11; Ubuntu; Linux x86_64; rv:128.0) Gecko/20100101 Firefox/128.0" version="24.7.5">
  <diagram name="Page-1" id="2bsYrvFL7bPuwWxiP7Uz">
    <mxGraphModel dx="1676" dy="1125" grid="1" gridSize="10" guides="1" tooltips="1" connect="1" arrows="1" fold="1" page="1" pageScale="1" pageWidth="850" pageHeight="1100" math="0" shadow="0">
      <root>
        <mxCell id="0" />
        <mxCell id="1" parent="0" />
        <mxCell id="GaV9kBNqf7M6tbpTA97o-1" value="" style="shape=image;verticalLabelPosition=bottom;labelBackgroundColor=default;verticalAlign=top;aspect=fixed;imageAspect=0;image=data:image/png,iVBORw0KGgoAAAANSUhEUgAAAwAAAAHVCAYAAABG7Zw7AAAABHNCSVQICAgIfAhkiAAAABl0RVh0U29mdHdhcmUAZ25vbWUtc2NyZWVuc2hvdO8Dvz4AAAAqdEVYdENyZWF0aW9uIFRpbWUATWkgMzEgSnVsIDIwMjQgMjA6NTE6MjIgRUVTVLYV8gAAACAASURBVHic7N1ndhxJtif4v5mb65BQTJJZldVzztQWpt/nnlX0rG3eSnpWMK+X0FOvKjNJQoV07Sbmg0VAEBoI4e5xf+dkUiQScBIR7nbNrmA/fvwwIIQQQgghhBwEZoyhAIAQslFSafzrMtn3ZRyMv531wTnb92W8iTEGjLXrmg+VMUBW1shKhbSsofV2lg390MPxwAcAXMxyZKXcytd5rf/yaYB5VmKyLPd6HYRsA9/3BRBCukc4HIPI2/dlHIyiVvu+hLejxX9raGNwPsuxzKutLf4BYJlX+P0yQVkr/DKO8Hkcb+1rvST0BBgDlnm9t2sgZJsoACCEbMVR3wenRd5OFLVCGw5zDYCiUnZHtQXXSyxnh6dLSht8n2S4mOfwXY6/fRrAd3e/VDkZBihrhVrqnX9tQnaBAgBCyFYwxjDu+fu+jINQVqod6TTG4GKe283/NlwvubHrb1eS1/j9KkFRSXw97uGXcbSzr+1wBuFwzNNqZ1+TkF3j2hhoA2htaEOGELIxDMAw9uAK2mfYtrIlKUDXyxJSaVr7v4LWBmlRY5qUaMKj2eG7fx8rbfBjak8DAs/Bb2d9+K6z9a97Mghu/v4J6SqxSCswxsC53bHjjIEx+3OHMTDGwJgBZ/zZm7aBfeATQsiaAXDcD/Bjmu37UjpNGwOpDITT3LtwUSksMrujyhij58WKMXZ33RiDolbISoW8lKjkbVCXlxKfj+O9/p3ts8Y8yWtkhcTZKMSXoxhpKXEx2949JfJdzNJmBF6EbIuYJG+vbuf8NlDgzB6VfRqFW7g8Qsi25aVE6IutfG4GIPIFQk8gr/bb0aPrikqiF7r7voxHGQNczPObXx/64n/dAamqFdJSIq8Uyko+ueAsaoXvkwxfjnaXBvOzXdYBPEYbexrQC12c9AP87dMA364TVBvO0R9GHhjDTbBKSFe966mvtYG+c6sqa4VlLtBv6MOHEPK4aVLC4QzbDt9PBgF+v6K2oNtU1Apx6DZycX25yCHV7ULt0IrD17v8UmlklUS+2uXXb8i7LSqJH9Nsp7nwa8YYcM4B7D/VLMlr5KXE6TDE1+MYSSFxeSe4/Khhz0da1FBb7HZESBNsbNtvsizQC1zK7SSkJdb5xX897W/9a7nCtgWlXbXtKWvVuMW/MUBeSSQ/tVI8pOdEXkokhUReyXtB0HtkpcT5LN/Lifu+TwDuWtcGrE8DorM+vk/SN58GrLMYbPoz4LsOBGe4oPsUOQAbCwCUNpilJUY9v3EPIULIfXllFxK228Vu3rFHfR9JXr9p15O8XtXAQmBjzKO7s4dyAlBLje8brn9JixoXM+Bsl0EAY40KANZ+Pg2opIaBAce6fhEAAxjYTdB59+ePMcagqJr3XiJk0zaa+DtLSwxCF45DXT8IaSJjbBrCuig3DnaXtscZw6jn0VTNLTGwpwC76JLyWpeL4tFUigNZ/9+re9ikpKjB5sDpcHdBQFO/Z+vTgDhwMYo9AAzKAFqpm/9ujF3Yv7T14HCGQeTBE3zjtQWENM1GAwBjgLSU6IdeY28WhBwybQy+TdKblr+Rv9vF4ij2scxrGq6zJUWt4AmnEffftKifbKPYipkFH2CMLSLdZnvWZV7DADjbQRDAsJ82oG/x3OvtLfqRh0Hk4WpRbOCqCGmujb6jQ09gENHin5AmMsbg23V6b0c29HZfuH/cD3b+NQ+FHQi276uwgeblMwuorqcAaWMwWW5/AZnk9c4WqqKBKUDbkJcSobedrmiENMnGAgDOGM5G9GAnpKm+TzLUd4oQA28/O8XrtqBk84q6Ga1WL2Y59AF3UTmf5TvrIb/Iqp0EAfxAAoCslBA0vJAcgI29yk+H4apNGCGkaS5mOYqf0hEiT+xt0M3JgDYLtkEqO9n9tTZdj22MwTKvkJXPByJdXUwaY3flix3PvFhkFSbL7Q6u6ur37GdpUYMBiLc0G4WQptjIir0fuogDQd1/CGmgybJE8khubOTv7z0rHFtsRzbvtYvPWmrM0hKztEReStRSw9yJCAzeHiBobXC9eLnIu6sZQAYGl4vtFP6+ZJaWmKfbK7AXB7LBp7Sdqt2n+xPpuA+HuMLhOKbdPEIaxxiDpJCYPbIo4Azw9tgthjFGbUG3pKwVQs95sdD2Yp4/WqTqcAZXcLiOA+EwuA63vxb8JnffGLvYZbhf0Hu5KF71/exqEfDVvNj4qcpbTJYlOGPoh+7G/447+i17VFbWiH0abEq67cMBwKdR2NmbOSFtllfqyQmZUQMebtQWdDvKWj17T7Y7+wZHff/Vn1Mbg7JW4IzBE9z2WP/p/MgYg2HsYRi/vHPatSeGMQZFrR49adu1q0UBBmxlB5tzdhC1HVkpMYg8cA5oalhGOupDAcC45zeq5zQhxKqkxvkzA4jCHbf/fMoo9rHI6g9PSCW3fq71+Nl6137Thdjb+JxtcjlvTtvIdQem3gZPApZ5dS9FrMvWg8AGof/oCSohXfDupL7AdTDuvX4HiRCyG1Lbdp/PPaqbdLx9MqD7yCZpbZ4MqNYLuMNYxu2GMQbXy7JxQezlokC2gYm2eaXw+1WCyz2nN+2SNgZFJREHhxvQku57VwBgW36GB3MzIKQttDH4fp0+m4ftCadRHT0i3z3oneNteOoUQBvbKag53/32q6XBIqv2fRmPOp9myMr6XTv3ldT48zrF90l6kIP7slLBpXagpMPe9eo+GQRwHH5QRUGENJ025kGv/8dE/v7afz6F2oJuVvHEzm+SVxAO3bg36cfs6VS7JvgxtS2AXxMDGNgA8XyW44+rZKuTjJsuK2twZovgCemiN7+ye4Fr8wq3cTWEkDdT2mCyLPHPi9c9sEPfadz71xUc/bA5aUlt99jroKgUHIc3LvhrK2OAadK81J/HfJ9kzw6JM7CnQ5Nlgd8vl0gbUMy8b5XU0KvCdkK66E3n7g5nOBnSTh0hTSCVxiytsMyqNy3qmppuc9wPkBaS2oJuQPVIADBJSnw5ivZwNd1jjH3/TZP2FIj+mGb4PI7he7cbAGb1r3laYpZW9N77SV5KhDQQjHTUm17Zn0ZR43YOCTk0tdSYpiWS/O27dFGDH2acU1vQTTGwO5ie4DDGdnDxXftzSt38OMawt4Ff72UM8H2a4ctRBE84YAxYZhWmSQl1AK093yMtJaKATiZJN716NTCKvXs7B4SQ3SprhVlafeh4PvREoxeB1BZ0c/JSwhM2fWGSlPj1OG7s971NjDFY5PWTdRZNZlZ1QuOej2VeoTrA4t63yEsJBiAOBNLidRO2CWmLVwUAvutg3Ato8U/IDq0X6nklMUsr5OXHH0Bx4DZ+ETgIXUxalFrRVKW0C9TJsoAvHAgqZtwIrQ0my+b0/H8rbQyuW3z9u6S0QS01eqFHAQDpnBcDAMbW0353cTmEkLW8kpgm5UY7cUit4XDe6OndMQUAG1FWCpXUmGeVbduM7k3g3YeLxeH0wydAWtboh1QITLrnxS2h475t+UkI2T5jgKSo8cdVgh/TbONt+L5dp41PXXAdDqdBcwraqlYaV/McDmfoBdS5bROyUm7kJI60R1pIOJw1un6KkPd4dmUfBy4GkUcPDkJ2YJnbhf/FLN9qbu73adb4Nn/0sN2Molboh967BkGRh6hY9vCUtUJRKZpVQjrnyQDA4Qyn9IInZKuMMZilJf55scTlPH9xiNemnM9yLPNmTi8FQK33NmgQuY1O+SKk6SbLAsLhdF8infLkq/lsGILTMTwhG7fejJ2lJeZZBb2nXcXLuc1lHkTNy2+NfRdAu9osNlHoCSr+JeSDitUpwOkgwL8uk31fDiEb8eiTYRh5FOkSsgVaG0wTu+M/Tcq9Lf7XrhZFI4cZMWa7j5GPGUTUw5yQTVifAlB6IumKB69kTzg4ptQfQjZKaY1pUmGZV43rIDJNSmgDHPW8xqSKGNg6gE0XQR8ShzPENMSIkI0oaoWitrUAdApAuuDBCcCnUbiP6yCkk6QyuJzn+OdFgkXWvMX/2jwtcdWgCbwMVAj8Uf0GpnYR0ma3tQB0Okna794T9rgfUL4oIRtQS41JUja+285dy6yCVhqfxtG+LwWATQHinO09TaqtBiHt/hOyScVqtsbpIKRTANJ6N6v9yBe25WczMgAIaaWikvgxzfD7VdKqxf9aWkqcz5pTfBt6dArwHqEv4HDazCFk064WOZ0CkE7gAMA5wxlN+yXkQ7Q2+D7NkbV8UFBa1Pg+yRqRrkRpQO8zjFy6nxOyBXdPAQhpMw7Ylp9NKf4jpK04Z/Ddbuy65pXEt0m69yCAAoC3s1NLKf1nG2ig2vM8wTHu+fu+jK27Xqw6AgV0fyLtJfqhSw9ZQjZAG4PQEyiqbnSuKWuFSVLiuL+/B7rDGTzBtzoZuWsGkQcD0AT3BvMEx8kwgOs4UFpDa0Bqg1oq1EqjqlXrXvOfRhEiX4AxoB+6+DHNWvdneK28kigqiZN+gH8VVAtA2kmcDukYi5BN4Iwh8LqTFxq4zl4X/4BtBxr6ApVs7tTiphlEHi3+G8p3HZwMfPiugNbGLpCZPT0MBUfvpx1le+LAbJBgTCMDhThwcToIAAZcLwsUlcTpMMTX4xhJIXE5b05N0SZNkwqfjyJEgUBWtDvtkxwm2vonZIOCjgyvEg7DL0f77wa0bgc6TykAeI3IF+CUzrk1702VDTyBk4EPTzhQ2uBqUWCRPf6adjiD43AIziAcDoczCIfBdRwIx56I8VcFChq11FsLFDhn+DyO4LsOstIu9NWqY9ef1ylGPR/j2EccCHy7TvceqGxaXklUUtMpAGktCgAI2SDG2p+y4nCGL0dxYxaSoWcXtZryr19EndyaJfQFTvoBXMEhlcblvMAyfz6YVdpAaYXnPooxQHBuAwWH2Z9zQAgHgjO4giPgDzcj7gUK2kCb20ChUhr1KwOFYeThqO9DG4PzWf5ox7NZUiLJK3waRfh63ENWSpzPshc/d5tcLXJ8OYoReE5nUj/J4aAAgJANMsbu9rU1ZYUx4MtR3Lh5IIHntL670rbZ4l+6pW/Ta4uAe6GL434AhzPUUuNiliPZYFtgY4Ba2d395zj3ThFuTxME5xCCw+MMAXt9oKC0QRy4EJxhmde4XhbPzumQyuDP6xSDyMNx38ffzvq4mOXIqm68l4tKoagUTgcBfr9K9305hLwJPS0I2SDG7GJ10dKNrl/GEVzRrMU/YFNbKAC4jzMGx2FwOAcDEAcCxoBOAPaoH7oY93wIh6OSCleLaq/zQNanCc9h7E5Q4Nj0I2f9ew6HcGygANhAQSqDb5MMxRsW8YusQlba2oBfjiLklcL3STcWzNOktLUAdI8iLcMM9TUjZKOUNvjnxXLfl/Fmp8MQvUA0siVwW/9OX4tzBocx++PqH845OMPNzi3ndpHGmN3Zvcus/tXAb12nLLIKV4viwe8PYw/jng/OGCqpMVkWnVsMrl+HZf2xVJd+6OF4YJsLXM2LjZ6M7Is9NWU0HZi0Cp0AELJhDmety1kf93z0w+b2jnc4g+vwF1MemmC9WHf47cLdYcwu5oXdXb37MT8v2o0xbw7C2M2/yDb9/H056gcYRB44A4paYboskXckveVnUmnIDaS5L/MKWVnjZBDgbBRiUNmWoc9kEjXeNCnw+ShG6InOfv9J91AAQMgWhL7Y69H/Wwwir/HDe4wxCH2B+onOKfvCGcOX4xgOZ2AMN4XT5uZfgIFd0L92fd7EExhirQ/MjwfBTbvVvJKYLMsP74wfEqVt8XDo1/g0DPHbWR+XiwJJ3o575s/ySsEY2PSmUiIp6tb+WcjhoBQgQjbMGINFVuF6We77Ul4UegKfG9Du8zWyUuLHtFnFFbbVoUeL9gOhtAHnNphLS4npskS1iW3xA8YZw8kgQC90UdYK3ydZq05PAeCvZz04jGGWVgg8B4EnAGOgtEFWSszSCrIFp5fksNAJACEbxhhD6AugBQEA5+xdKSebtMgqhL6A+0LnodATYLjZWN87zhhGtPg/KA5nSIoas6RsdavfJtHG4GKeY1nUOBuG+O1TH9OkxCxpx/3zryc9AMC3SXZzCsSYvV9FvkAcuBhEHrQxKGuFJLenA025j5HDRScAhGzJP34sGn+T5wz426fBXr52VkpcLwrUSsMVHL8exy8upr9N0sb02x7FHsb9gFLvD0hRSXybNOsUqks4Yxj3fQwjD7XU+DHNGlv3IzjHr6cxjLH3pfqZgNB1OKLABgSBKwAYKA1klcQ8LZ/9fwnZFgoACNmSJi1Wn/PrSQxP7G6CcS01Lub5g5zpcc9/sRZhllaYLB92Ydk1xhh+O+s1Zlga2Q1jDP5x3t1uVE3hCY5fjmI4DJhlFaYNO00VDsdfTnpQxuDbdfqm9J67pwOR70I4DFobVFIhKSSWWdX4jSPSDRQAELIF2hjM0wrTFhxjH/cDDGNv619HaYPr5fOFfn8960PwpxfVtdL4vQGt9uwk1IDabh6g3y+Txu5KdwljwCi2mwJK24V2E/7ePcHx9biHWtl6BfXB9kXr04HQs/8ABlIbFJXCjE4HyBax3y+XZhT76DW4BSAhbdTEotXHxIHA2TDa2mJWG4NZUmKeVXhpuyFwHXw5jp/9mH9eLD/80P0IxoDfzvq0+3+gzmd5azp8dYErOH4ZRzfThx+bw7Argefg81GMWmp8u043Xqy8Ph0IPVs7sD4dqJVGUtRYpHQ6QDaH/a/vcwPY4qZB5GEYe/RgI2QD2pIusM06gEVmT0HesmA/WbVYfIwBcDXPsdxji71B5OGYdv8PkjHAPCsxaVhKyiFYnwYYAN+vE5Q73hmPfIFPoxBFrfBjmmMXyRM3tQOesJ2FYE9S88qmChXUepZ8wE0XIKXNTeV9L3QxjDx47u7yggnpGsYYPMEb3y1EG5ta81IXnrfIConrZfGuI/vrRYE4cB9MuwXsrKvId/cWADAARz2fFv8HijHstF6G3JqlJZKixqdRiK8nPaSFxPlsNyesvcDF6TBEXkmcT7Od7cLXSmOeVpin1U+nAwL9MIbWNl0oLWosshpKN/tZQ5rl5gTgMYHnYBh5iANKDyLkrYwxuF6WWDRseNVjTgYB+qvBRh/xVIHvW4W+wOfx4/MJtDH4zz2drPRDuxAgh0trg/+8aP7JXpcNYw9HPR/G2JSsbU7fHUY+jvr+Kv0o39rXeSvhcMS+QOgLhJ4DxhiUNqilxjKvscyb/9wh+/VsALAmHI5B5GEQuZQeRMgbJHmNi3lzHhpP+UgdgDF2Uf5Sge9bnQ4D9MPHU4H+vE73Mnn1t7P+oycT5LD85/kCeyxDIbBpy5/GEQLXQVba04D3ZuVwxhCHLkLPgcsZhHDA2e1U7mlSNrqhAwMQeDYQiAIBTzgwxkAZoKgU5ilNqiYPvSoAuPlgBvRDD6PYh3DoIUjIS6TS+FcDuta85L11AMYYTJMK86x898P3KYwBfzsbPAhKDIDZHh7IvdDF6SCk9B+C75MUeQta/B6CfujhZBDAwOBiliErn/6+cMZuOu54gkM4HIzhZmNTG7uDXtYKldSrfxR0y6I9hzNEvovQdxB5YjXwEaikQl4pLNIKktKFDt6bAoC7Ql9gFPsIPWfvk0QJabJ9d615rb+c9t5UB/CeAt+3GsYexj3/wcljVSv8cZ1u7es+5q+nPYgN1kmQdjLGYJKUmKeUYtEUnDOcDUNEvkBRK5zPcgQuR+i58ASHKzg4YzfB+81CXypUdXsX+q/lu85q7oCAv6rt1MagqjWSvMaC0oUOknj5Qx6XlxJ5KeE6HMPYQ3/VtYPCAELuCz2BpAVtA7NSYvCKOoCskLhOip30p+4Hj6cduq4DztnOHti2JR8t/sltcT9pDq0NfkwzxIGL02GA30579vdXC/0kr1Eru8ivar3x9p1NV9YKZa0wTUpwxm7qBuLAxckwwPEwgFIaRa2xyCoUW6ypIM3x7gBgrVYaV4sCk2WJfuRhtGojSgcChFi+67QiACgqhcHjdbf3lFLtZPEfeOLJTmQMNrDaVT/2oxcmFJPD4lOHvEZKixraGHweR/h2nVKbzEdoY7sGpYWdqeAKjsh3EfsCsS/QCwSMsbMH8lJhTulCnfXhAGDNTj4tMU9LxIGLYewhoJskIQh9AbSgaUhe1mB4ucPNuOcjLeqttzcdPTOd2MD25d5FABD5Ai7t+JI7qBVoc+WlhDH2vksBwMtqqTGXdu0G4OZ0oLdax/Ujd29d18h2beWplhY1vl2nmDS4ap6QXfEEb0Vq3HoewEsMgE9PtOjcFNfhiPyn9ycYbOeiXTjqBzv5OqRdKCWsuYpaoR9S+/L3yEuJybLEvy4T/HGV2A5J1Aq+k7Z6B0v3OK2TkCYJvHbsGOalfHHIDQMgOMco3l5azDD2XrwOvoNc7MgXlO9NHkWvi+aaLgsIh9PJ3QdVUqOWGsMnJrOTdtvqu6NWmnLHyMEzBjdj3JsurxReM+aSMZsKtI1dUM7Zq4qRjTE2vWqLaPefPMYYqgNosqK2HX16tHP9Ycu8ht+SDSzyNlsPj9OcqsnJYWNs8ycAgWdbuvEND6UqKvnqAn7GgE+jzU/FfS73//7XZ4i3GACEnkO7vOSedWzMGGh3ueEoDWgzkqK2KZdb3mwhu7f172hW1hi+8oFOSFdt+gSgH4qbKblKG+SlRCk1ylqi+MCAIqUNpNKv3tn3XQeDyMMi20wfacYYhtHrU4sCT+DXk95GvvbPaNgh+dndVwSdADTbNCnx9TiGK/hOupZ1lVy1Tx32fKQlbeh2ydYDgLxS0MY82subkEPBYHOGN9U5x3dv37oOZ+iFLiJjwJldPFdSo6gkylqjqOWbHoBZKdF/RQrO2lHfdgXaxECwwTt27GiXnmzbY8MuxYZP38hmlbWCNkAvcHc+NbxrkrzGmFohd85Onpw5RY3kwBls9hTgsUXv3SDbExyDyMPJwMdfTnr426c+vhxFOOr7iAMXzjOLl+KVdQBrjDGcbSgVaNTzaIYIaRzGGH6eHcUYozSghisqRXUAG5AU0qZc7qjzGtmNnXw3s1IiCtxWtEIkZBsYgMB1sNjA53rLzuN615IzhsAT94IQpTWKSq1OCRTK2vbPzt9QBwDcDuXqBe6HBp71npj6S8g+rXf/H3tpesKh9JKGGsU+Ao+DMwaHs42cUB4qqTSqWmEU+0gL2tDtip0EAGkpcbqLL0RIg4X+ZnKGn5qO+1YO54gDjvhOo5taauTvHAN/OgyRV/LdD9pRz3+QZkHIvhhji32fek0aAxz3fXiCIyslSho61Qi+6+DTKIRwOMpa4XJR0OJ/A5YFpQF1zU4CAK0Nylrey1sm5NA4nEM4HPIVw7ae4wrnZnGyaa7gcMV7i/YNjvsBLub5m//P0KN++6Q5DOxJWC0Vhk/MuyhqBc7szIpxz4dUBkleIaVgYC84B34ZxQg8B0obXMzyD51IkvuSvMZxP0AvdJHQjKdO2NmKPC0kPOHQDh85aIHnIMk/GAA4j6cj7Btjthg5KWpkb6z7oU5hpAmMMaikxvWigOPwR9vcKqVxtSyR3llcxoGLQeRiEPsY9XwobbDMK6QFBQO7cNwPMIhsrv80KTFLywc1G+RjlDYoa4Vh5FEA0BG7CwBKSUN1yMHzhYMEH7t57vok7bEOKM85G4b412UC/consCc4IuoxTfbIGAOpDSarhX3kC5wNb59Xxn4QFnmNybKE+em1nRb1TUAQ+gKj2MMg9DCKb4OBrJAoKBjYqMgTOBtH4Mz2q58syw+fsJKnJXmNowGt47piZ0/dWmoobZ7tPkJI14W+Ayw/9jncHfantwudt309xhiO+j6uFsWrPn70RIoFIdtmjIE2wCQpsVzNsgg8B59G0b1TNik1zmc5KvnyAj4v5U3nu8ATGMce+neCgXWa0EfmdRw6wTk+jUP4roNKalzNcwqudiApahwPKA2oK3a67ZYUNYYRHfWTw+UJB5yxV++O/8zh7Mnpv5uuCzB4ugDyOYwBg8hDUkgULxQUr2cYELJLZvWvaVJinlU36SKe6+Dz+Hbxb4zBJKkwT9/XR76oJL6v3gO+62Dcs4un4U0wUK+CAeqs8lqnoxA9X8AAuFwUN4Eb2T6lDYqK0oC6YqcBQFZKCgDIwfM9592zMVzxdAcgxlYtdzeUTvPRWOJsGOD3q+TZXNy79wNt7Nc0oMGBZHuMMVhkNaZpCX2nO4wrOL4cRTdBb15JXM6LjaWUlLXCj2kKwKa9HfUD9EMXw9iDUhpJISkYeEYvcHE6DAEGzNMSs6R690YKeb/1KQBpv50GAHkp35xPTEiXGGMQuO8PADzBn3wPSaXxY5phEHk4XtXbvPetZgxWE7zfdwoAAMLhGPd8TJaP755yxm6Kf6UymKUllDYIPQe+a/8hZBPWp2NJXmOSPMwTFw7Hl6MYnNl+8VeL4l6R76ZV0r5XAfuevj0Z8KC0RlpIpIV8d0veLvEEx6dxBNex7VavFwVqyvPfm7SocTKwweuSTgFabeeVd1kpEdNkPnKgGGMIvPcvbG0HoMcX5LWyu2GLrEJeSXweRxDO21trGgOUtZ38+Nwi3AYIzwcH68Exj3VC6UceGGMoaoVv1ykiX6yG99DCn2xWUUlcLwtUTwzt+nIUweEM87TCJHlY5LtNldQ4n9lgQAiOo56/6irkQWuDpLBpQu/dNGizT6MIUSAglcb3aXaQfwdNs04DGkQeBQAtt4cAQFEAQA5a6Al8GkUQjp1QaQCUtUZW1i/mVT7XAcjhDHHgIi1qGIMnF/8v1QoYGEySEp9G0bPXkr8ymD8bhvj9Knnw+6PV7n/gOvj1pHdzukHIplRS42pRvJhWs8zrRgzzklLjYmbnaAjOMe77iP3DDAbiwEUcCFwvy3fXYJDtSIoax31q3tB2ewgAagCUP0YOW+By1MrcHGWHnoNeIHA6DKG1QS0VSmlTAe4u0PuxZwAAIABJREFUXtxnhmV5gtvWhcMAxjy90H8po+dqXiD0BJ5r2DVLSkySEpFf20CBPV0z4AqbCjRNbh/ivdC96QhmALirYIXSA8lHGQMoYzBZFK8eBHX3tdkUUmtczn8KBlYnA+ezfKspSk1w3PdR1IoW/w2UUBpQJ+w8AFgPk6D8XnKojAHmWY3ZTw824fBV7rv9cRB6GEbeTavCSqoX2+iuF9DvWUcbAxS1RFLU+Otp79HFuDE2B3SyWjBlpcS3SYrPR/GzX3Pc85EUNepVCsbd1p/s5l+kK9ZddvYRzzEGfL9KO5UnfjcY+N9+GUDr7vzZHuMJOzX9cpHt+1LII7Q2KGqFYUxpQG22l+k7aSHhuQ4988lBYsz2Gkd6//el0pBKI73TPn9dDOsLjsCzb9dNt/u8e12hZ/PwH0sfMsbmUl+sFiJrZa3wx1WCz0fRzU7+Y86GIf68ThH6At4zJxmkvYwxqJVBVkr0AvGuGpSPSvK6U4v/u9Z/m7rjmXJnwxC11AeR6tRWy6zCCXUDarW9BABZWeOI8sfIAQu91731ylrdy0v2XQdnw/DZVKCPMAZPvjcZsxO9HyOVxp/XKT6PoydP93zXwTD2EPsu3j5ejDTJOgjVxqCoJPJKo6ju59BXtYuzUbjb60Iz03k2hXP7vu9y+0vhMLiug8tZ/vIHk71JS4lTxjAIXSzoFKCV9hIAVFJDa/PkQCNCuo4xe8z9VFeSp5S1wu9XCUaxj3HfBzbcVvf54mDgZBBgFHuYZxUWdwYoAfZY+M/rFGfD8MnhXuv2pKRd1gFbLTWKWiGv7CTb53rkp0UNrYOd3ueTvOrs7j8AOKvYusvF8qfDEEabztc4tJ3WBnkpMYg8CgBaai8BAAAsixqD0KWiP3KQjAECT6CS75tiOUvLm04Mu+qqtX6nCofjuB9gFPs2EEjvD+S5mOeQSmPUe3iSsP4wets313qxb4xBJfVNd5yiUm/aeTYAJkmJ476/s/v8NHn5/WTra1xwznDesl1mZ30C0NEYhzOGwHUwWZbobojTHUlR2+FspJX2FgDkNBWYHLB1vv3iA2PspdI4n+UIvQqnI9vHfJfraoczHPV8jGIPi7TCIq/BmQ0QlLaLx59z/Wnh3zxmteLXqwYN6939TbTEXOY1jnr+1r/vxgDLvHr2RKIXuhhGHnzXgTEGs/T97719uemc1dETgJNhAAPQjnJLpKXEKYBB5GKR0fesbfYWAGSlhDYGDIwWBeQghf5mOmHllcLvl0uMYn/VW3+37ynOGEY9/2bHf702MTBbK1gm77f+ntTKFlkWlUJRP5/O8/6vZTDPKowfOQ3a8Fd6dEEvHI7+auG/TkVaZBWmiZ063TacMxhjOrs7HgcuZjsexEbe7zYNyKcAoIX2FgAAwPdJhtNhANdxaJFADg5nDK7gN60xP8IYW/y47s/82iLjbVi/l3d7HvE6ZrXdfSj3G7PuxwmGspbIV4v9olI7W2TNswqjnr/VV8Mir+8FMKEvMIw8RP7t+yAtakyWZatrBOzk7W6+eNf1QfMPnIqS3aM0oPbaawBg2wemGMb+To6JCWkSA5sGVL+zDuAxtdT4PsnQC10c9wNwdljDtYyxJw+M3YYfxhgobSCVgYGB7zqNDE42Zf13kJerdJ5aodrjhFutDRZpiUG8nSDAGINZUoIzhn7kYhj7EHcKj4ta4XpR7H3K7yY4nHW2A5BNI6mgW3gyc8jSQuJ0CFsMTMFbq+w1AFibpyXSHRc0ErJvDEDgOlhs4XMneY2skBj3/c7X2qjV5GS5mqxsF/sacvXjzwsKu+HgdTIwMsYgKWpczouXP3iH5lmNYbydNKCiUhj3fQzC+6/zSipMliWyDvWSZ4yhi+v/YWzfj/MW1mUcOm0MsrK+CeBIezQiAABuCxoj36Yw7GOADCG7FvrbewtqY3C9KLDMapwOg1ZO31baQGkNqQyqWkGZ24FpcrXYf6t5WmIUe3C6t/7HJKkwT5vXB18qjSSvEQdi44FX6AusExCMsa/7ybLEMu/eYoR39ARgFPtIi3ordShk+5JC4pSGgrVOYwKAtayU+P0qwTi2RYVmw33OCWkShzMIh0Gq7T3UK6nw53WKQeThaNWSsenvKKUNfkyzraVtTJYFTgZhZ9IOjQF+zLJGT06dpeWT8yE2hTGAg+FkGNxMKV0Xza5rHowxN2lS2thaFW3s72tjVj+uU8cAYzS0toGF0hp6FYTuA2eA7lgP0Dhw4XD2qhaupJmyQoINGYaRRzUcLdK4AACwD7NJUiIpJE4GAQKvfTuXhLyGMQaBJ5DsoO3dIqtWqXbB1hdiH5GVEuezbKupDsu8xrjnt/6k0RhAGYPvk3QjxeTbVEmNq0UBzmwnG43bxfh64X37c9xbiN/lCY4vx/HN52GMYZFVz54GMdjdc85sAThj9ufrGhkHt1N2baHt6zeebgqt1x9vbif13g02jLktQl8HJHcDD61v//zrX2tjF/xaA1JrcGaDlS457vvIK4lKtr9G41DZNCCJfuRSANAijQwA1iqp8G1yZ+cSh1XQSLqPMYZwRwEAYHfWL+Y55lmFs1EI4fDGnAYYANeLYmd5pNeLAmfjqDF//rcyxvbt/zHLW1M4+dHvrSccfDmOVot0GyxeL8ut7sjfDRoYu/Nr3P313cBi/f+tfs3Zze+vr9v+nNvPsYpBX9sS2xiDz0cxruZ5qzsaAbYJgnA4LuftGshGHkpym2pK2qPRAcDazc7lIECPioRJx+yjZWdZK/xxmWDY8zGObfHkvoLrdZee79Nsp7vYaSlR1wpeC2sjDOwpxtWiWcW+2+QJB1+PYzC2Pk3IUVTb3zXWdgsf2FH3/acCjXXqXug5GMQe/nLag1Qas7RqZfEl5wynwwCVVMh38H0k25WWEmeMYRh7VMzdEux/fZ+3Y+toJfAcnI2ie23eCGm7/zxf7O1oXzgcx/0AcbCf/YBlXuFqUeylu0ngCXw5inb/hT9okpSYJc0r9t2m06GdbzFJyp2dmDVZL3AxiDwEnp1snFUKV/O8FQPOfhlHCD0H2gAXsxx51dzaFfJ6n0YhPNfB75fJvi+FvELrAgDAplqOVkXCFAaQLjifZUiL/T4EQ8/B6TCEs4O0oPVi/2K+/z/353G01W5MH3F3knItNdKiRl6pg1ww2fz31j2uts4VdtrxIPLAwFCrZrY/5QBORhFiX9jZDWmFeVbR1N8OiQMXZ8MA/zhf7vtSyCuwf10sTVvzCIXDcTYMqUiYtJoxt7vg+3Y3uL5b17hpZa1wPsu22v3otTzh4NeTeN+XcY8xBpXUyEq5mtwrO9n/nWwOY0Av8DCIXPiuA6k0skpisij2Xjh8OgzRC1wYGMzTCvO0omCugxhj+NtZH9OkxKyB7YjJfWyyLMy05UfJvcDFySC4yZMkpG1qqfD7Vbrvy7jhOhynoxDBFvLj52mFybLYUUb163waRYgCsbcTxXVBr93dVyhrWvCT9/MExyDy0A9dGNg+7Vd7KLQ9GdiOYwy42fFvS8E6eZ9PoxCecPD7FaUBNZ1oct/o10qKGlkpcdT3Mej41FPSTa5wwBgas+irlca36xT90MVRP4DzwZqbdQvE81nWyIK/ybJA5Pew7QhgndJjDFDUEnlp03m2Ne+AHKZ1y9XrZYnTYYBox6fkx/0A/dAF4wyLtMQsfb5NK+mOpKhxNmxmSiW5TxQdefBoY3C1KLDMa/wyjj68YCFk10JPNC5vd5nXSIvb4Np2MX+7spY4nzW3QLFWGsu8souWDZ4irvvUawMUlUReSuSVop7nZCfWJ0u76jQ27vkYxj4YA5ZZhWlSNvY9T7YjKxUAhlHPP7hGBW3TuTCtrBUWWYVxz9/3pRDyJoHnNC4AAO4H1yeDAP4b04KmSYk2pBlOkxL9D54grnf4lTbIK4liVbDb9CFdpLuUMtj2fpid1ROAM7sDPF2WrZ9RQN7HGIO0rNEPXAoAGq5zAQBgh8NQAEDaJvIEJmjuDbOsFf68TjFcDebDC4OLlDb4Mc1ak96itMEfVwm+HsXgr1wxrXf4lTbIynq14FdbHUxFyFtIpW9mCGx6L34Qehj3fTicIS0kJklBwS5BkteIRzSzqek6GQCUtbrXPo+QNvBcB4yxxrfFm2cVkqLGcd8W+D0mKyUu5u2ZULtmjF0wedy5WdzfpY0BZ8x2WClvd/gpzYE0ldR2Qe65HGW9mcV5L3Rx3AvgOAxZKTFZlpTWRm7Y2lKDcc9vxenvoepkAAAAaVE/uTghpKkCz0EbCvOVNriY51iuxr87nN8E3NeLAvMWTiYF7J9LCJvixFZ95zljtgd/WaOsNfJSUgtD0hqr9T++HPdgtAEYoLWBMfb1bmB/LbWGVAZKa9TS/vPz6zwOXBz3fQiHIy8lJrOyNSd8ZHcM7GTgfuhRANBgnQ0AslIiXrUfI6QNjDEI3HYEAGt5JfGvywTjno84ELiYFa3eCTTGYJaUOOr7MMYukqZpiUpqVLWivGbSOtoYaG1QSXXTgUs4HA63P3LO4TCAsceXA+ZO6yrGGCqp8X2SHeQwOvJ6SV4j9l1wAHTXbKZOBwCEtMm6W0wbtaXQ9zXmWYVRzwNnDBwGo9i7SQUysBN5y1qhlhqVVKikppx/0mjKGChtXnyPCodDcAbH4XA4g8MZOFv9yBkWWUXPVvIq6zSgIaUBNVZnAwBtDKpavbljCSH7MktLzGl64t7ZU4AKR33/QQ0Agx2y5AkOwNYLTJISSU4BAGmuopKI/ZdTYqXSkAoApfWQDzIA0oLSgJqM7/sCtiktaJomaYdlXmOypJtkU8zT8tk8f20Mrpclfr9MkOT1Dq+MkLdLCwm+2tEnZFeSoobDgS9HMYIdzaIgr9fpACAra+oERBptvUtyOc/3fSnkDgNgljwsZDbGplH86yLBPC033laRkG3ISgkD22SAkF3JSjsAkjHgy1GEv5z2djaUjrys09+JatXFgFMUQN7osRaQ2/gaeaVwPsu2+nXI+8yzEuPebf6/PaUpqOUnaSWtDQJXIC0oh5/sTlZKZKVE6AuMYw+fjyJIpXG1KKieZM86HQAAQJrX6IUenQSQV6lqhbSU8F0HnuAQjj0kM8BNF4xNMMagkhrnM9r5bypj7CYCYwzns4wGHJFWq6WmmjiyN3kpkZcSoScw6nn4ZRxBaTtlPi0ojXIfOh8AZKVEP/L2fRmkBYwBFnmNxZ0e9pwz+K4DX9iAwPccuOugwAAGbz9hMsZAKoNvk5RqVBpOOBxpUdPin7ReXkmMYn/fl0EOXF5J5BO7yTbuefg0CqF0gMmywJLqqXaq+wFARd0MyOswhgc9+LU2NzsXtx/H4AsOb3VKsD4tYIzBwC7wnwoK1sN3/rymxX8bMAZq8Uk6IS1qjHs+PMFRUUBL9qysFX5Mc3jCdlw7HYY4HoSYJSVm1A1vJzofANg8a0mFJ+RFSutXDXoyxqCoFYqfWuV5woHvcriroMAXDviq64bW5may7LdJRpNkW4KBoVb0vSLtt66JCzyBSrZzUjfpnkoq/JhmcAXHUc/HUd/HMPawyCpqH7plB7EqzkqJwHW2XtRJ9qesFeZZhaOeD8fh75oAnZUfOy2yQ6Hufw7h3J4QeIJjsixpR7klOGd0AkA6RWsD3+108z/SUvWqJs4VJcaxj3FvHQjY5gtk8w4jACgkjvvBvi+DbJgxBsYAk6S8ydtP8hqjno9x7AGMvSkQ+Dn9ZxPsYB2NdOOfmWzbeqFEAQDpirJWdBpOGq2WGhfzHJOkxDj2MIw9DCMPy7zC1YICgU06iDtBrTSUNjQEpYGMwU2HJgO8asG+/n+WeY1JUkL/1JZxlpRI8hrHfR9x8PL0y7WsopZk5JYvbMcUavtJuiIrJeLABV+lIxLSVFJpXC4KzLMaZ6MAg8hDP/RwvSzuNeog73cQAQBgC6AG1A1o78xqlX+70L9d9r9u8W9QK42refEgB/8uqexxYujXOB0EL6YF1Uo/CCTIYXMFp91/0ilpXuN0GMJ3OXJqkEEaLPIFeqGLXuDCwJ4MzLOaFv8bdDABQFZKCgD27O5wrfXPX1uXYVaRwyQpMU9ffwPIS4l/XSYY92xO4WOnDAY2TYyQu1zHoQCAdIqGPdHyXUEBAGkc4XD0Qxf90IVwOJQ2SIoak0UJqelevGkHEwDklXx1ignZjruL/bcWZKelxPXi/VNYp0mJZV7jdBg8KAhnsK8PQu5yHIaioocO6RalNALPARUmkSZgDIgDF4PQQ+A5MLADOa8WGU0K3rKDCQCMsbvBkX8wf+TWM7APq8tFsZECXak0vk8yxIGLk0EAzm4DEQoAyM84Y1B0AkA6pqgVem+ojSJkGzzh3Oz2c86gtME8rTBdFqC77m4c1Go4W42hpm6gzbZOD5ol5Vb6AKdFjaysMY59jHo+ylrRUC7yAGfsVXMhCGmTZFUPJxwGSTMuyA5xxtALXQwiD57g0MagrBWuFwUNp9uDgwsATgb7vgrylHWKVl7ZG8I2F1/r9qG90EX5TDExOVyMAZIKw0nHFJXd8PBdAanqfV8OOQChJ9AP3ZuufEobXC1LLGji714dVAAglZ306jo0CKVpjDHQBrhaFEiL3T2UGKNdMPKQJ2gGAOkurQ0C19npvZYclnVBby904a4KetNSYrIoqKC3IQ4qAABst5dB5NJU4IZYtwWdZxWmSbXq9rM7nDFa5JEHPNfOAKDgkHRRpZQtBCZkgxiAKHAxiFyEnoA2BrXU+EEFvY10cAFAJTUt/htgvayqpMLlPN9L/h9nDIyB8rzJA+v81F0HpITsQl4qHPX9fV8G6QhXrNt3enCooLc1DioAWPeCJ/u1nkB5vSyx3ONQD99b7/LSLYrc5wqaAUC6K8lrHPV9eIJT8SV5l3VBbz904bsOtDEoaoUJFfS2xkEEAJwxnI1CagG6Z9oYcMaQ5DUmSbn3ybvBKs3jvbMFSHe51CGFdJjUGsYAgSdQSZqsSt7ur2c9MMaglMH1ssScCnpbp/MrYk84+GUcQTiU9rNPxhgoZfB9njWm644rOC3+yaMczlFUVCBJustOBKY6API+WSHhuQ7+uEr2fSnknTodAPQCF6fDkPr+75ExgIHBNCkxT5u10yQ4Ry2bEYyQZmGg2hDSbUVt5+IQ8h7zrMLX4xi+6zRmU4+8TWf7YR73fZyNaPG/bwYGf1yljVv8A7ZNWU25iuQR1B6WdF1a1BAOA6eHJHmHslYoaomTQbDvSyHv1MnwXzgclbK7zp7rwHX4gxudMaDgYAcu50Vjiyk5p0FP3VHD8BwGBcBLO1RO+2AIwHQIwH31Z+LcdodSDX3dErIJaWHbMvqug7yiFo3k7eZphbNhBM7Z3mv6yNt1MgCQSj/aXYbBBgfC4RCCQ3AGT9hfu4JTgLBBxhgkhWz0oBlGMwA6QMPwOTSfP/gvhmcwyAAOMD0E10O85tCTMwZjDE4GAc7nOZ0Skc7SxiDwKAAg75MWEmZocNwPcDnP93055I06GQA8xcDm9dZKA49kpNwNEFzB4XAGV/DVCYL99d3PBWNopsATtAGuF8W+L+NJDACMoTzvNmMVlHMO4OX8U8PnUDwBl5/A4D37sVJp/H6Z4vNxhF+Pe5gmJWbU4YJ0UC01FQKTD5klFcY9D5cP92BIwx1UAPCSuwFC/kTKurs+MVgFBO4qWHgQIKx63R9qgHA+zW76/TdR4Dl0AtBiBgaaX+I1i/9bCsa5BNQXMDz/vpRa4/fLBKPYw7jnIw4Ezmc5vV5Ip+SVwiB8fXocIT9b5BXGfR+j2MOsgbV+5GkUALxRLTVqqfHUYdc6GAg9B6P48IaOGQPMsxJFw7sCeMKBMYYKPVvK8BnA3p5eZlgNxmeAHr/q42dphaSo8fW4h7+cxLhelljscXgdIZuUFhVGsQdBcy/IO2ltkGQVhrFPAUDLUACwYesAQXCbR3xIJwDG2PSJ6bL56RKeSzMA2szwxYPf++PPP/H//I//gR/n59BK48uXz/g//9t/w9dff733cZrPwfXoxVOANakM/nmxxMkgwHHfRy9wcT7L6PVDWo9zWxMTeAJJ3tx6LdJs86xCP/IQeAIF1ZO0RmfbgO6bcDjwygVGdxj8mGVow7LIdRza8WorVgA/vcrOz8/x7//+7/jHP/6BPMtQlgX+8Y9/4P/+93/H+fn5w0/B3h6kXi0K/HGVwhUcfzntoUepE6TFzkYRfhlHyEqJvKRFG3m/SmoUlcRx//CyHtqMAoAtEQ47uC5C18uyNR1THM6oALilDHtYXP4f//N/QquHaWdaa/zHf/y/j3yO951S1UrjnxdLpIXE6SDEL2PbAo+QthAOx29nfcS+wPWiwI8pnWaRj5tnFTzXgcNpWdkW9J3aEtc5nL9aYwzyUrYqN9pxqAC4rcwjLbym0+mTHz+dzl71Od7icp7j2yRF6DkYRs93FSKkKYaxj7+cxNDG4I/rpFX3bNJsaSGhtcHJgE4B2oJqALbEOaQAAMBFC3sAUwDQUuxh28LAf/qhEwSPTKpkH39/lrWC0uZe9y9CmogD+Hwcw3cdzNMKk6RAg5u0kZaapxXGPR94sk0KaZLDWaXumDigRcHlvGjVETJb/UMBQDsx83DH/fPnz09+/JevX171Od5DG1AAQBot9AV++zSAcDi+TzNcL2nxT7ZjseqfPurRKUAbUACwBZwdRv9/Y4BlXjV62u9jPJeDMYaaioBbiZmHxbf/9m//hr///X9/8Pt///vf8V//j//68JNsKgDQ5qBO+0i7rAt9i1rij6uEin3JVmltkBQ1pUW2BKUAbYE4kAWBNgbXi+a3/PyZ765nANAJQCuZADA+cKeQl3OO//7f/y/885//wrfvfwIAvnz+it9+++uj/z8zm9mhUsbAo6I30jDC4fh6HIMzhsmywJz6s5Mdmacl+qGLyBfIKOBsNAoAtuBQAoCmT/t9ii8ctChjiTyCq1No5xvA7gdxv/3218cX/bf/J7g62dh1KK3B3cN4v5N2GMY+jnoepDb4PklRtaQzG+mGSmqUtcJR329sACA4RxQIBJ6DrJQHOwODAoAtEA6HMeh0G9BZ0vxpv08RgtPuf8sxCHB9DO1cvu3/U8dgG7ztKWVuhikRsk93C30XWUW5/mRvZmmJT6MIwtnvs/Z2oS/gOoBwnAc1W3HgoqjUQa4JKADYAod3ewZArTSmSftSf9YEZ6gkPRnbjpkYXAkY5wIGzwejDA6YOttY6s+aVNoWlTPQYovs1dnYLv5/TLPG7rySw5AWEkobnAwC/JhmW/96wuGI/PVCn8EVHPzOIkxqg6pWyMoKtdSopEYt7TPj60mMr8cx/nmx3Pp1Ng0FAFvQ9RkAP6btmPb7FM45akU5sV3AjA8mv0LzCQzPAPy8i8PBdASuj7CNngfrXSPOGBRFAGSPrpY5/ur39n0ZhACwtQBH/UdaMH+AEByR7yJ0HYjVQt9uwNjFvtIGZa2QpfcX+s/dmX9Mc/zlJMYv42gnwUqTUACwBcLp5va/McD1smjNtN/HjGIfnLFW/xnIzzi4PgE0YFgFA3s6xeBvrN3nU9adpBzOWtUKl3SPlBq11Bj1mpt7TQ7HIq8x7gU46vuYLN+WMSAER+y7CJ5Y6N/s6L9hof8UqTQu5gU+jUL0QxfLA6oHoABgC7paBFzU7Zr2+7PToX2DT5PyoN7kh4QZDwy7a0F3cwJAswBIA1wtCnw+iuAJB5VsZ40W6YZ1S9BB5D0ZAHirHX3fdeA6DI7D77VRV1qjrPVGFvrPSYsai8zBySBAUauD2SCkAGALujgYSGuDi1l7p/t9PY7hCQfns7x1cwtI83XxPU/aJ68kpNIY9zyct/h+Tbph3RJ0FNvaq8CzO/qC21k86zR9qTRqpZFlFSqlUdUatVI7rau6XhQIPAdfj2P85/lh1ANQALBhnLPODQEzAC4X7Zr2u+Zwhr+c9AAG/HmdUEs8snHamHsFZ4Ts0ywpcTIMIZzyIDubkM1yBYcnHDBma50YY3aXHnannvPVj6t/GMPNDv36rnjUtwGA0gaV1EiLCrWyKWtlQ7oJGtzWA3w5ivFtku77kraOAoANYozh0zDsXAvQJK9buWvuuw4+H0WQSuP7JGtlAENawAAOtQIlDbHIaxz1AwwjD9fLYt+XQ1qMM4avxz3wVZcz2+3MwGDd9czAGLsJYoz9b9ow+6O2v29PpUwr0ofv1gMMYx/ztL3dDl+DAoANcTjDl6MYwulWC1ClNK4X7XuI9AIXp6MQRSXxY9LurkWk2QwMpQCRRlnkFYaRj2lStnJYI2mGcc8HjMH/dyApMcBtPcBRz0NW1p2uB6Btqw1wHY5fT3q2Ur1Lq38A57O8dQ+Qk0GAs1GIeVrhOy3+yZZpQ0XApFnWRZeDaHcF8aRbPOFgGHu4bOEG4EddLwrUSuPrcbzvS9kqOgH4oHWaSRdzgNs47ffzOELoC1zM84Md7012yxiDjjb+Ii2WlRLD2MOsYWkMnK/zxe/kjq+GZ97NMS9rRe1M9+h0GKCUqpXpvx91KPUAFAB8QOQLfBpH+76Mrahku6b9cgb8etKDwzn+vE4bU1hEuk9pQzUApHEuFwV+O+2hH3pY5h/Pv+acIXCdOwWfAOMMDLi3mGfsziL/5r+zd52SGQNkZY2sVMjKmuq4dqQXuvAEx+9X3Vz4vsbdeoBR7DcukN4ECgDeaRB5OBlsdspdUxgDnLdo2q/rcHw96UFrjd+vlpCqLVdOukBpA9elAIA0i9YaRS0xij8eAPRCF8f9AA63BZ4Au5caeq8gFAZaG2hjh5PZn9vfUxrQRkNpA6U0tAakfjzHWnCOUc9D6AtEvgBjASqpkBYSWSlpk2dLOGM46QdIivrgu0it6wHGPR9ZWXeuiyAFAO9w1Pdv+tp20fXS5r+1gXA4vp7EKCvZynoF0n5KGXC/eylvh0tdAAAgAElEQVSApP2uFwV+Pekh9AXyd6TTuA7H6TBE4DmopMafV+mTC/ZNk1rj6k7++SDy0A9sT/lxz4fSBmlRI69sqpChe/9GjFctOy/nh5f7/xg7H0DgSwfnA1AA8EanwwD9sJuFVcYYFLVqRbuutVHsgQH4Ps32fSnkQClNcwBIM1XSDlgax/6bAgDGgFHsY9TzYYwdApnsORd8kVU3z6bAdTCMfcSBi0HkwRigqCSySiIt5MHvXL+XJxwMIxoid5etB8jw60mML8cxvl13Jy2KAoBXYozh8zhC4Dn7vpStMUDrpv2GnkBe0VEw2Z9a2dcfZ7YjECFNcr0o8Ms4giccVPLle2XoCZwObbpPVkicz5q3uVLUCsXqujjnGMceIl/gqOfjuB+glhppUSOrFIqKColf63R4+3dHbkmlcbmqB3jvaVoTUQDwCjc9/kW383wv5+2b9utwhkXWjTcjaaf1biPnDJrqT0jDZKWE0gajnvfsBo/DGU4GAeLARa0M/rhOW9EDXWuN62WB61V2Rj900QtdDGIPox6D1gZZJZGtagcoTfRxfSr8fRZfDUHryuIfoADgRa7D8eU4tt0N9n0xW2IAJHnVuqjfdx1wzpDTDg/Zo3W9jMM5pKLTKNI8s6TE8SDAxCkfTY8Zxj6Oeh4AhqtF0ao00J8t8xrLVQtoT3CMegFCTyAOXDDY9qJpIZF2fMjTW3DGcEyFv8/qRx7KV5ygtQkFAM9Y9/hn6NZ0359pbXC9aF+Lq2HkQWvTucp80i7rmkiqAyBNNc8qjPs+BpF7MyQMsM+4s2EIV3BkpU336dIGeSU1Lm5ShYBh5CMOBMY9D0d9H1JpZKVEWkoUpWxN57tNo8Lf5wmHI3AdnHes1pACgCdEvsCnUdi5yb6PcTjDMPZa1fcfAALPofx/0gjG2PcRIU2V5DWGkYdZUgEMOOr5GEQepNIHMTtFa2CalDfPuV7oYhB66IceBpEHpQ2ksm1Ly1pBrjaXpNKd3hX3XFv4ezlvV/3fLvVDF9oYpB1K/wEoAHhUP/Jw2tEe/08Z9Xy4guNynrdmB0g4vHVBC+kmA/OuQUeE7Mr1orDPtqFNiWGcYbosMe3ggKPXSPL6Zlq8Jzh6oQffdeA4DH3XuxluBtgAXyqNSqpVUGBQK4Va6lbVzTmcIfAEfMER+gKe4GCMoajkTdoUeagfeig6uNlIAcBPut7j/ykMQOy78I4dfJ+kjb+pxb596dKoeNIEdAJAms4AyEuFOHCRVxI/pjn1zl+ppMZk+TD9hXMg8l34rgNPOPBWC2eGu8GBQa00qtq2XK2VhpQaldR7LTjmjMF3HQSec/MjZwwGtnVxVds5C7Twf17gOhAOw49p99KjKAC4w+EMse/u+zL2hjG7E/LrSQ/fJ/8/e3fa3cSxhQv4rann1mgZM+bk/v+/dO85CQngWVPP3VX3Q7WEDQZso6El72ctEggGKx6k2rWn9FEj4+7ijCH0JDzH3ixwbhvKttE1H7Wp664HKuRlMIYyAKT7rhcZAjdCRouzHkXr+5mCuwTnCFyxDg48RyDgCgxmHRxo3QYHdWOzBu1ehrLWG/34M9hSHlcJeErAdQSUsFMLtTFoGoNlXmOZVTQW9YkiX9mA6Qh7DSkAuKPRBv9cLzHp+4i8lxsIcMbwdhzgYpY/OBmIM4bAk/Dbg74UHIx9bYKstUFVN4AGzoYBLqYpknyzTzpu27RGSBcYUAaAdF9Va2RljV7gYpoc7qSfLmi0xiLTD96gS84RuBKOI6AEg++odUnRqq2w0RpVbWxwoNvgoNaPvniLfAVXclvSo77uJ9LaoKgbLLMKi7Ta2ebmY8SYrf9fZMd51qAA4BvG2GVYqVdj0vcB4KgnAD3E/v8yvBr4WGQSBvbALQQHv3PQb7RBUdXIihpVY9b1kXdvNsaxh9O+j0uWP3iL8lxScGoAJp2htYF4aU8U5CAt0gqnAwnJOR0Ot6TWGvOsBB7oq3XuHNqlYAhcCcaYHTW+Dg4Myqqx5USNzSIoweEq+2dXlw3GGDTaIC0aJHlJ5TwbZitCGG6Wx9kgTQHADyzzCnnVtBsUD2cBmD18b2ZsqTE2+rXprwZZWv7woP8j14scBgaTngcOZp8Uf1MvsNmZrKAnO9INjTaQggIA0n1JUcEYD8PYpckve1DWGmX98OugDQ4UPIdDcIbAbTMHnMEY+/q+ev1Ni/qollJ1Uewr1FrjWONkCgB+om40/r1aYtzzEPtOZzMBxthb+6JqkBU1ynYygU1fOQg9CWOArKxxOct+WDfPOcfpwIevOLSxI9P6oYOsqHE1f34DzM2igDHAuOeBcYbZb06dCD2Fqtag8n/SFY3WcCQ9nZLuM8Yuy4p8Gv3YNTY4KDA/rnHzB0lwBt+VuP6Ns0/X0SvWLxgAV/McaVHjtO/fq+HrikZr3CwKLB+o10+LGlJw9AIHPV/hwyRGVWtcLfJ1M5AUHJO+D689+F8tCizaTZDLvILewEl7Na5zFLtgzG6mfC5XCkp1kk5pGgPBDydTSF62ZV6hF9ixl8c+/5+Q54gDBwZ2id6xogDgkdKixj/XCV4NfDhKYN8xgAFgtMFtUmD2i2auurEjzm6XOWLfQT9w8GYUrJeeKCmgjbl38F/ZxOF/5XZpMwGj2IVgDNcPjF37FdEGYBlNMiAdUmvduYsBQn4kLxtobTCKXXy+oetmQr6ltUGSVTgbBhCcQXAGztm9je+6LblelUMbYy9kjQGatj+jaXRn9xVRAPAEq42Jw8jFMNrProDVcXy6tAf/p8wZNgaYpyXmaQnPkegHCq6S7Szg3US506SAgcE49sAYw9X8aSnoXugAoACAdEvd2O9DwRmNpiUHYZaWL3LnDSGPMU9LzH/we1LYMeeCMQjRBgeMrQMFwRkcySHY16DhORee20YBwDPcLgtkZYNXA//etsBtWkWYi6zC7bL47UNGXtZ7mwc8S0oYA5z0PDCGJ9WhBq5sG5C3+AAJeaK6sV1inAIAciCWWYVh5KLnK8yppJKQR6sbDTyycm4Uu+gHTicDACpafS5jZ93v6vCf5DU+XiW4mudHccCYpyUuZzliX+F0EDz6zyma/086qGoDABoFSg5F1WgUVYMeZQEI2ZrVvo3RnqpGfoYyAE8UuBLDyL23eGMbbGWZHS/46SZBdYRb6BZZCQOD074PMQzw+fbntahS2FQajT4jXbPKSNE2YHJIFlmFceyBAzi+VxhC9k9rg1laoh86uOlYLwBlAB4p8hXen0R4NQy2fvhvtMEiLZHkNQRnbb38Vt/l3iyzCufTDL4r8WYU/vRt+4GNoHOaWkE6SBtD24DJQVnmFRgDBrG374dCyNGyg1oYRnG3sgCUAfiJ1Rz9YeRupdbfGAPG2HpGf1bWSIv63m1/L3Awjj28GYX4fJM+qen3UCR5hS+3BmfDAO9OQvxzlTz4dr4rqPmXdJehDAA5LFobJEWFyJO4Wez70RBynJpVFiBwcLPoThaAAoAHcMbQCxT6oXtvPfcmmHZrV11rJHmFrGyQV/UPm1rnaYm60TgbBnh7EuLTdXIUPQDfSosan29TnA0CvDuJ8M/V8ru3UYJjkXXnm4eQuwxAGQBycJZphXCo4EiO8ghLTQnpgllSoB84GMVuZ4IAKgG6Q3CGUeTij1cxhrEHwTd3+NfGYJlVuJrn+PtigY9XS9wsC2Tljw//K2lR49/rBJIzvB2HUPI4P21ZUePLbQolOD5Monu/5ykBRvX/pMNsAHCc35vkeKVFDW0Mhh0rTyDkmDTaYN5mAbqCXq3wdRPuh0mEQeSCAb+16Gt1oC+qBjfLAv9eJ/jf+QIXswyLrHrWDX5RNfh4mYAxGwRsuw9hX7KyxufbBIJzfJjE689DL3CgtaEbKtJZWmtIQRkAclgMbC+W71BBACHbNE0KdKkXgP3fz7Pjqyd5JEdyDEIXka/W9fib8tfFYmulOh8mMQRnuJhlSPLjnN/sOQKvhwG0sR/LD5MIedXgYvq0xWGEbIsSHL3Qga8E1DfbwW2w2qCoNJZ5hYIa10mHuUrg7TjEl9uUxiwTskXj2EMvUPjv+f6bbl5kAOApgWHkwne3d+Px3y9zbPMD++4khCMFLuc5FulutvjumqsEXo+CdXPl1TzH/Ej/X0n3Cc7QD134SsBRAozZnp6y7ecpar3+WnWVgO8IOFKsywibNoOVFjWWWXmUvTzkcH04jdG02+4JIdshOMOHSYxZWuy9F+Dgcn6MMXCGtjnX/py1q5ZZ+99XP2frt/v69lIwOHL75TPbfmn/5yrBq6GPSc+D5Ay3HZsvuwlF1eDzTYrXwwAGoAlAZKc4A+LARehKOIqDtyf5sm4wSwtkxY8b+O9m5hwp4DkCjuTwHYlx7GIcu9DaoDEGRdUgyeujzeaRwzBPSwzD7tQnE3KM7vYCHG0A8LsHdd6+LV/92UdM47EvxAYGDIBZn8JtaY+dvrOLCt1djeo8v81w0jMYRi5Ee0N+bIqqwaebFG/GAQahi8sZlQCR7YkDhchz4Eq+HulZNxrLzE7sytqGyaco6wZl/bUEiDHAVRKeEnCVDQoiT8EYH9oY1I1GXjZUOkR2aplVGEUuBqHb1ioTQrZhmhTrEe/Xi/2d2+S9Q/fdwzn/5kDObGOsPcQ/dFDHvb/jZ9YvoAb21fDOfTnD8yfv2D+3OuSzbzp5j7M572qeo2oMRrELJTm+3Ka/nCp0aMq6wdUsx6TvYZrwo9yKTPYjdBWiQMFTYv3c1WhbppOWNbKi3nipjjFAXtbI72S0BGfwHAlHcniOQBwo9EMHxtjHUzUGaVFjkVXQmr7+yebVjUZeNegFigIAQrZolQXoBWqvAQAz5uHj4tcz+uq37x7U7c/5c0/qR67RBn9d7LbBI/IVJj0PZa2PdmHYm5Edgbrrjy05Hp4S6IUuPCUgONaL+FaH/aysOxNgKsnhKdmWDtm+A8BeoDSNQVFrZEWFRUalQ2Qz4sDBpOfh74slago0CdkawRk+nMaYJ+XegoAfBgDk+erG4O/L3R9SPUfi9dBHow3+PcKFYVJwvD8JMU+rvUbN5HAoydEPHHiOgBKrxl0gr+p1Sc8hldl4joCrJNw2UyCFneTcaIO8bHA9z+ngRp6NM4Y/TmMs84rKLQnZsnHPQ8938N/z+V7ePwUAW1DVGh8f2GS7C1JyvBuH0Nrg823amdvMTbF1cy4+Xi1RN/SlS+6TvB3N2Tbdrkb7rib15GVzVM3knDN4SsB3JHqBAsBQNRo3i5zGOZJnOe37CFyJ/1GmlZCt2ncWgAKALSiqZq+j1Di3N+WMAZ9v0oO64XyMdycROAP+vtxPkEW6g3OGXuAgaEdurhp3q1ojLWzjbl42R1kS9y3OGCJfoRcoOFLY5uW8xg1ly8gjScFxNvQhOJVaErIL+8wCUACwBXnZ4NPN/mcpf5hEEJzjfHpcy12U5Hh3EmG6LI5y/Cn5MQZbpxx56t5ozkYbe8NfNVtp3D00q4xA6Nklh3mpcTnPUDfHlREkm6Mkx5uRXb747+US9JVCyPatsgCLpMTVji9rKADYgiSvcN6RjbVvxyFcJXAxy7A8ombBYeRiEDr4+3L54g97xy7y29Gc7YHfTuoxyMralvQUNSo62D5ICo7YV+gFDjhjqNvyoOSILgTI7/McgbNhgLox+GdP5auEvFT72g5MAcAWLLMKFx1qoHo1CBB6ErdHdmP+/iQCGPCRSoGOjiM5Xo/C9XhhYwzySq8n9RxbWdu2MQZEnoNeoOAqgUYbLPMK10e4O4Q8TeBKvBoEyMsan2/TfT8cQl4cKTg+TCLMswpXzzg7SsEhBYfgDEJwCIb236wtizUQd0b3txPzKQDYhkXWvQkKo9jDIHSwSEtcHsmLvqsE3o5D3CwLTI8osCGrDI9dSGTr+OnGelNcJdBry6gAu2H7ZpGjPLKBAeTXVmM/j+l1gZBDZHsBFGZpZQ/ydxfncg4GYxfitm+/GnDx0DR+Y0y7Q8ZAm/aHNtDtXhlj7DhpCgC2YJaWnbxZ64cORpGHtOhOidLvGkUu+pGLvy+WaGj84dE4GwZQklN2Z4tE20Ad+wpCcNS1xm1SHFWpIPmxYeRiELnUS0VIB6zGnBtjN2412h7aG62h2wO71nYzl9b3D/X6m4P+Y1EAsAXTpMDNoptPqKGncNr3UFQaX24Pe2EYZwxvxiEkZ/j7KqENqUfk/SRCUTW4OJJAtetCz04P8h0JrYFlUeFmllEj6JGa9DxEvoPrRY55Wu774RBC9kDu+wEcG2NsRNZVSV7hU6PxZhTi7UmITwe8MOzV0IfT3hLT4f+4cMaObodFlyV5hSSv1ovTYl8h9noo6gZXs4zKg44EYza7thoMkeSU7SHkpeL7fgDHhjFm8zcdVlQNPl4vIRjD23EIJQ7vy+Ck58FTEl9uUpoAc4Q4Y3To3IOq1ria5/jrYombZQHB7N6ND5MYvcDZ98Mjv4Ezhjej0D5v3tLhn5CXjkqANsTWbRlMkxLzpDyI0hrOgfcnMRiAz7eHszCsHzoYxx6u5zlmlL4+Ok675+GfqyUFAR0QuNIuW3MlGm2Q5hWulzko6XY4BLeXPZwxfLpJ6PuKEEIBwO8yxpb9TJMSs7TEIX44P0xiCA6cT7POLwwbxi6GodvJSUtkM/qBg3HPw3/P5zjAb6ejJQVHL1Do+Q7AvmYLDuXi4KVSkuP1MADnDP9cJqgpciOEgAKAZ1uNUZolJWZpcfAHldejAL4jcTnLsci6eav+ZhzCUwIAcDHNsKQU9lE6HfjwlMTfl7tdikIehzEg9m2fgKsE6kZjllaYJd0cfPCSuUrg9SiANnbBF539CSErFAA80Wq+6m1SYn4EB/+7JgMfsac6N1dfSY634xCMMVzNMviOROQr/Hud0O3jEXp3EqFu7JQq0m2eI9DzHYS+gqbyoE5ZLfiqtaZxuoSQ71AA8ASNNpgmBeZpeVQH/7vWC8OyCteL/EkzZbdhVe9fVg2+TDPUbcPvm1EIVwn8c72kaTFH5j+vepin3R2lS7632inQCxRYO8Hpep4jpwB9LyJf4bTvo6ga/Hud7PvhEEI6iAKAX1iN9bxdFlikZdcH/GxEL7CHbsaAtKjbEYH1zhub34xCeI7APC1x9c1iNcaAt6MQUnJ8vFyABgEdjz9fxbic57SQ6gAxfN0p4DkSdWMwz8pOZRSP3TByMYxcJHmN8yll0QghD6MA4CcabV7Uwf8uyTmGsQvfFZCcwxiDpKiR5DXSotpqBsSRHG/GIRgYzqfpDxuTOWN4P4nAAPx9saClRUdAcIY/TmMq7zoCjhToBQqxr2AMkJUNruY5bezeoknPQxw4mGclrmbd20ZPCOkOCgAeUDca06R8kQf/hyjJMYxc+I6A4BzamHVWYNNTgyJfYdLzUdYNvtymv1xSJgXHu3Z99l8X1DR66GJfYdL3aQLQEeGcoec7iAMFzhh9n27Jq4GPwFOYLgvcUsaFEPILFAC0VlN9XuqN/2O5SmAYefAcDs4YGm2wbIOBvPz9YGDS9xG48kmHBFcJvB2HqBuNv6nZ7aBN+h4CR+Iv+jweHSU43k8i3NIBdaM4Y3g9CuBIgat5d6e4EUK6Re77AeybMUCjNW6XJT1xPkJRNfhya5vKPMcGA7Gv0A8cNNpgkZVI8vrZ5RtFWSP2FRgev1DZPqYUZ8MAb0YhPt1Q09uhcqSgJUVHqmo05mmJfuhQALAhgtvtvlL8vFySEEK+9WIDAGOAxhjcLgo6+D9TXjb43B62A1dhEDno+Q4GoYu60VhkFZZ59aQpPWlhAwcl+ZMOgmlRo6w1DOVuDpoUHIuSvh+P1e2yQOw7mPQ9XFKN+m9RguP1KIDgHJ9vEpq4RAh5khcXANgbf4ObJU0Z2aS0qJAW9uMZewq90EE/dDCMXJS1xjKvsMyq9RjPH1ltqVRPvAlWgsORHP9e03bgQxf7CsusRlnTgebYNNpglhTohy6u5zn2PGX4YLlK4PUwABhoFDIh5Fk23gNgYEfBdc3qxv9mQQf/XbKzwR0owcGYLddZBQM/avD94zTGPC2fVCYwjj1EHtWOHzrOgPcnEThn+HKbIdtAXwnpFs4YPpxGyMuGlr09w2rBlwHw8XJJU5UIIc+ysQyAMQbX7eKe1Yr4LgUD2hj8e7X85VQZslnztMQ8LcFgl3pFvsIwcjGOPeTl12Dg7o4BrQ2U4E96P73AoVKuI6AN8NflEu9OIrweBbiYZljmFLAfk9WwhVHkQnK+zvqRX1st+KobjX8ulzT6mBDybBvNAORljU839kZHcIbIV4h9B4582mFu0wyATzRXvDMYAwahh8iXkJyBMWbHihY10rzG6cCHFBz/XD3uNj/07I3Yf7/MqQPgiLwehfAdgZtFgWlCTaPHhDHgwyRCVev1awb5udWCr6rW+PjI50ZCCPmRjfYAeI6EFBx1o9tazxKzpIQUHJGnEPkSjhQwxr4A7MrlNKPDf4cYA9wuc9wubTnAMHYRugqBq4CeQaMN5BMyAD3fQVlpOvwfmc83Ccaxh1HsQgr23TZocriMAW4WBSZ9H64S9Pz8C6sFX3nZ0JQzQshGbDQDYIzBLC1xs/jxbZ0UHLFvt0M+5ZD33MczT8t1aRLpNs4ZRrGH0BEQgj9qXvhqcyyVihyvXuBgHHvIyhrn05QWhB2RD5MYBua7rbXaGPtDG2hjn8tfKk8JvBmHWOY1LqaULSGEbMbGm4C1Mfjf+eOWOClpMwO9wIHgbOM9A3nV4NM13ZYcolHsYhC69tB3m93rEbhr0E4a+u8jv+bIYQo8ibNBgKJq8Pkm/eHXAzkcq5KWx9LGrBc2am3WE920sVlD803QoNvfW/23Q+3/in0HJ30P//0y3/dDIYQcka1sAv5y+/SFJK4SCD2J2LfBwO9qtMHHqyX0gT7pEyBwJF4NfWhjx4xKziE4gxQc/JuvkayskeQ1lnlFn/Mj5SqBN6MAjTb4dJP+cqQs6SbBGc6GdnPtNHk4yycFhxQcggOi/b7nnEFwu4GcMdP+G+2/GThj9gbJGLAf1JiuXu0arb8GE3cCBPvrO8HDD4KJXRrHHiJfPWk7OiGE/MpWAoC0qH9rvJvnCNsz4CnwZ2YG/rlKaI74ERCC4e0oBGCDukYbVI1GXev1rz1HIvIkpGAAY8iK2jYV5zXdFB8ZwRjeTSIABp9vMvoePzCBK3Ha9wEAn2/Trdf+K8khOIfkDEJwCAZwwSGYDSgYTBs8AOxOIMGYLTv6WSBhYNaBgWmDhKYNEprmfrZCG4O8ap4VPJwNAwjO8C9lswkhG7SVAAAA/rpYbCTl6jsSoScR+cre8DzC+TRDQvXgLw5nwCDyEHoSktv+krSosMxrpEVFteNHgrW7AgTtCjgYDLasr9+W9X0+sMk/ziqQEAy8zUgIboMFm7E2bUCxCiwAxlmbcrABhR1/WmL2xIlWf5zGSIsalzNackgI2ZytBAAGduX79AmLnB4jcCXCNjPwo1jgMY2j5PgJzjCMXASuhBAcxhgkuc0MZEVNE4OOwNtxCFcJagDvOCk4zgY+lOS4XhSYpy9zX0c/dDCKPDRa43pRPOqSijOG/7yKcTnLsKAFloSQDdpaBqDRZqs1izYQkAjcr8HA75YekeMkBccocuG7EoIzaG2wbEuE6Pb4sE0GPmJP4WYLFw7k90WewqTvwYDhn6sF6uZlh94MwKthAN+RKOsGl/Mc5U/KoFwl8HYc4q8L2vhLCNmsrQUAgK3xzJ7YDPxUjAGhq+C7EtfznGq+yU8pyTGKPXhKQHCGRmsssxpJUSEvqZ78EK2myczTknYFdARjwEnPR+wrpEWDL7dUv36XEhxnwwBKciyzCteL/MGS2dhXGPe8R0/WI4SQx9paAGAAJHmFiynVLZJucpXAMHLhtsFA3WgsswrLov7prRzpnshXmPQ8ZGVDuwL2zJECr4Z2m/fFNEWSU5btR8I2Q8LAME0KTJPy3s6DUWw3pv99QZt/CSGbtdUMAAD873xBt/Kk83xXYhA6cJUEZ0C1CgbyClVNqfdD4DkCr4chypp2BezLamlbYwz+vVoe7Oz9XTvp+Yh8CRjgepGv6/1pAhAhZFu2GgDYde85Zi+06YscpsBVGEQOnHbfQFlrLPMKy6yi2fMdJwXD+5MYjda0K2CHOGOY9D0EnsIyr3BJmd8n44zh9SiAowSqqsHVIsdp30dW1ricUWkbIWSztp4BqBuNvy8pfUkOU+Qr9AMHjhRgDCiqZh0M0O1mN3HG8P4kAhjtCtiF2FcYRi44Z7iYZk9eAknu8xyJ074HKewo46tFjnlCl2iEkM3aegAAAP9eJ1tf+ELItvUCB73AgZIcDEBetsEAbR/upPcnEaSgXQHb4imBk74HJTjyUuPLbULjdTfo1cBH6Cn8dblEQ5ksQsiGbT0AMMZgmdMSE3JcBpGL2FP3tg8v8wopbR/ulNfDAL4raVfABinBMe55CFyJstb4Mk1RU5/Mxn2YRKgafXBL0wghh2EnGQAD4C9qBiZHahi5iH0F0W4f/ni1pNrzDpn07TjKXe4KeD+J0DQaWdmgqBrkZXPwz3+cM4wiF73AQaMNzqcZcsqsbEXkKZwOfPx9SbsTCCHbIXfxThiA0JO0yZAcpdX26VeDAI7idPjvmMtZhrLWGMcuBGe43vKugEHoQnKGpmGIfYVB6IAxhrJukBUNirpBVtQH00PCGNAPXAwiBwBwOc+xoMEOWzWIHBRVTYd/QsjW7CQAAGz9NAUA5JgFrsQ0oW20XTRLClR1Y5cvCb61XQGcMwwiB0nR4GL6tXTDbi5XCD2FHldgjKHRBmlRrzMEXWxWjnyFceyBc4ZlWuFyTqWc2+a7Eo4UNPqTELJVOwsAXCXgSNHJFzlCfpfvSDAGLCnI7ay0qPHv1RKvxyHejMKt7AoYxR4YcO/wD9iliHBG2TkAACAASURBVMmdHgTPkYh8BU9xhJ4EZwxaG+RVY3+UDYqq3ttCM9vg67cNvjXOp9nBlzAdimHoomo0Dc4ghGzVTnoAANsHME/LraffCdmHN6MQnDP8c0Ujb7tOcoZ3JxG0MRvdFeBIjncnEa4XBWZPzARJzhEHCoEnIbndPwEDFHWDvKhR1BpZWW992tT9Bt8G59OMFuHtkKsE3o5DfL5NkdE4VULIFu0sAAAAbQz+Ol/QqDhydP581cPtsqASoAPBGMO7cQgpGOZpZctwqua3goE34xBKcPx1sdjIY+yHLgLHZk45t4+5agOBvLLNxZs6nN9t8NXGZjBonv/uvRr6cKWg3TmEkK3bWQkQYBf0hO2mSEKOReS15T/0dX0wIl9BSQ5tjF32FtoG10YbZEW9LsN5bMli6Cl4Smx0ZOMsKTC7Uwa+6iMIXIXYd8CYXbSYlTXyUiMva1RPDGDuNvgyANdz2ty+L0pyhK6ikdmEkJ3YaQAA2K2RdFAix6Qfur99e0x252wYIHAlkrzC5SyHNsZOKvMdhJ6E5wiEvgIDYAzaA3aDrKwfrMtmAMaxi6Jqtrpw7Ns+AlcJ9AIHrhIIPQXOPNSNRl41yEpbOvSzgCDyFMY9D5wBSVHjcppRdnaPIk+h0YaGZRBCdkIa2BewbTLGgDH7XnxXQgn+5JsqQrrKkRzXCyr96TohGN6NI3DGcDXPMb9z020ALLMSy+zrf/McichT8ByOQehgFLswxqCsNdI7WYJeoCA4w6fr3S5sKqrm3m2xEhy90IHvSISuAuvdz2hkZY2q1usGX0dyZGWNi9sMDTX47pXgDMPIxQ09jxBCdkSmeYXAVWAbjgLqxqBqNKq6Qa0N6ka3PwzdlJKj0fPtSMe7B0fSPbGvMOn7qBuNf29TlI+YsJKX9b1FV6Jt1PUdgX7oYsC+Xp4s8xq13u/zWtXoe0MWpOCIAweBIxB4Cpx9vYypao1/rpNHfRzI9g0jF9oY6iEihOyMPJ9meD1k8ByxvqX/ljG4FyAYAzTGoKptE9rqUF+1h/xDWXBDyO+KA8dOZ6Ev+c56PQrgOxJJXuNy9vxxlo3WmC4LTO/8t9i3Nfnfjv3sgrrRuF3kuG1/LQXH+5MISVHj/LZ7j/elkoKjFzi43dGWakIIAdoegM+3Kd6OQ7hKAGgP+Noe7Mu6Wd/m13TAJ+QeVwlq2uuon5X8bMoiqw6mZtuRHIwBV/T1CsCOXn03CcHaPI6BgdYG2hg02sAYrLPWVWMvu8otjEQdhA60MRQAEEJ2at0E/PkmhZQcVa2xw8mghBysQegCoOk/XRT5CpOeh0YD/94ktIAQtsmULnAsR3K8HdtdELP068FbcAbBGaTgEILBcyT4N4lxY2xwYNqfr4MFbdC0mfCqtj9+VRZGt/+EkH1ZBwDaGKoHJeQJIl8iLfa3rZU87GwUInAEkrzCxSynCw3YEs7Qk5inFKwGrsSrgY9aa3x+5CI4GxjwdYAgBANnd4IFzuApDuF+X0przNegQRuDxhgYDdRaQwq7AZoCgG5SkiPyFHxHQgr7+TZgthSQ+jXIgdv5GFBCjgED4EiB6ZLKKbpiFyU/h8p3JBhjuH3hh5Ze4GAceyiqBl9u00f3gzTaoNGPvyBbBQXrwEEwCIavQYTgcJSA4BwGdjoebf7dLyk54m8O+4wxGABVO/mr0QaO5BjFdnfGdFlSIEAOFgUAhDzDILLlPwmV/3TC3ZKff26WG9uQeyx8R0IbW+P+Uo1iD4PQsZmhLe88sL0Dv347zhhejwKcDQJcLwrMUzpM7oLkHFFgD/vqzmEfAMq6saNza43iB8sAlSwwilwKBMhBY//38+zlviIQ8kwfJhGKqsH5lDIA+/Z6FMKnkp+fcqTAu5MQi6zE5Sz/9R84Mq8GAUJPYpoUnZu1zwCc9H3EvsI8K3H1Aj8/2yQ5R+SrdgeRzb6sirSqxm7QLiqNompQVs2TAkMlOUaRi9BTdowrBQLkgFAGgJAn4sym+K/m9EK9T0owvB1HYAy4nOVY0C6GHyrrBjeLAsPIxTytHtxofKxWY2Av5zkWHSwLMwAuZxmqRmMUuXCkwKfrZN8P62ApwTHueXCVgLjTwd1og7xskKcliqpBUTW/3b9V1Rrn0+z7jEBSYkp9HaTjKANAyBOdxB7i0MF/v8z3/VBerNh3cNJz0WiDz7cplfw80ttxCCk4/rpY7Puh7MSHSQTBGc6nGdIDqLEPPYXTvo9Ga3y8WtKAgUdylMAwdOE7AvzbsU0AFmmJpKiRlc1WM4SO5BhGHkJPUkaAdB4FAIQ80R+nEdKiofn/e7Iq+VlkJa7mOR2SnsAuAwuRls1RLwPjjOHDJIIB8OU2PaiMh6sEXg8DgAGfrpOt7B44Bq4SGEQufGUP/VobLPMKaVGvg71+6CJ0JRzJ14FBXtaYpdVW+7eU5BhGLiJPQWtjMwIUCJCOoQCAkCeQguHDJMbnmxRZ2f0bxWOiBMfbcQjGGC5nGe1feKbYV5j0fZzfpkgO4Fb8qVaTfhqt8emRYz67RgqO18MAUnKc36YHkb3YBVcJDCMPnsPBGYM2BovUHvp/9XysJMcgdBG4drfD35fLre/EUJJjGLqIfIVGG8woECAdQgEAIU9w2vcRuBL/eyElFF3yfhIBsDe6VPLze16PArhK4K/zxVan4ezC6pZXtbe8DEBRNfh88/gxn13EGcPpwG/7FzIsD2Tj9Kb5jsQgcuG2n99GGyyzCklRI3/GJQwH8MerHtKixvl0N1mwuxkBCgRIV1AAQMgT/HEaIykqmtSxB6PYRT9w8dfF4qAPdl0gOMO7kwhVrfHp5nAaTpXk6PkOXIfDEV/rvetGI68a2+T5g9GNh+qk56EXOEiLBl9uD+dz9Ts8R2L4zaF/kZVI8xr5Bsq5er6Dk76HLzvOrijBMYzvBAIpNQuT/aEAgJBHciTHu5MIn27SZ908kd/356serhbdnOZyaCLfwWnfQ1rU+NLRfoDQVQh9BVfa8Y28ndVeVHZWe1FrZGV99PsNeoGDk56HutH4dJ2i1seXAQs9hX7grOv160Zjkdnynm30cKwa4v++XO58dPDd0iDdBgK0DZrsGgUAhDzSq2EAXwkq/9mjt+MQAPAvjUn8LZO+j8iTaLRpy2YYFlmFq/l+G9v7bY22Izk4Axhj7fhGO6s9LzdzA3yIHClwNvQhBMfl9Dh6YGJfIfIVXCXAGUNVayzzCklebz2LwznDH6cx5kmB6z3thrgXCBhbGkSBANkVCgAIeaQ/TmMs0hI39AS9N5FvxyR+vFyiOsDmzn2L2vGpDAzTpMDtsgBnDP3QwSB0AADztML1Yvslbo7kiH0HnsOhpFjf7pf1ajmTLeehz/NXnDFM+h7CtoTkbubDrLo5DO71dZj7/4ABwNpVWGb99gbGfH2L9c/N158bY9Zvr9e/Z9rfw/c/X/1a2z/ftFmLXuAg9iUcKcGY/XwneYVlXu28t2cYuRhGLv69TvY6KeruQjFjgHla7uR7kLxsFAAQ8gieEngzDvf+QkFsGdDq8EoeR0mOs4EPJe3G5OtF8d10HM4Z+oGDQejCwGCeVrjZ4CEk9BQiT8FRHJJzMGYPiqva/dWBn/o7fizy7AQnA3Pvecge6O2BmzG2OuV/jQTu/rz9NQcAdicUaH/O2kCMrf4MQ/s2DOz7EfvPUtQNkqxGkld7D/Den9jhAh+vlnt9HMD3gcBq1DEh20ABACGP8HoYQkmOvy+p/GffXg9DuIpTKdYjnQ3tJty60bicZ8jLnwewgtuMQD9wYYzBPHt6IMA5R89XCFbTee6U82SFLePJqwYlBdOPwhnD2SiApwSyssbFNNv6CMtfYawNPNYBgv0cM+DBoIG1v1E3ulOjWR3J8XYc4TYpOtOQ67RTg2wgYPDxOkFNk8/Ihsl9PwBCDoHrcMyS3TSeOpLT8p+fuF5keHcSwXck7WL4iUHoYhjbQ/zNIsfskY3TjTa4WRSYJSUGkYtB6KAXOJgnxQ/L31wlEAcKnhKQ/OvSpaJqsMxK5G39/r4PrYeoFzgY9zxobXDRodp/05YO3Z8je3if37LtOxhGLpJs/xmJ1WM6n2boBQ3GsUeHf7IVFAAQ8guBI8EZ29kc7rNhsD6E0QH3e2Wt0WiDyKcA4CG+I3E68CG4bey9WeTPOng32uB6nttAIHQwiFz0QhfzpEDVaISegpJfy3m0tuU8SV4iKxualPWbOGd4PbT7GpK8wuU8P/ppR/tyOcsQuBKTvt+psbihJ1HU9H1EtoMCAEJ+oR85KGu9s5uhm2WB076P16MAedngap4f1VzzTUjyCrHv4Gpe7HyEX9edjQJUdYMvt/lG+lXqRuNqFQhENhAAgKrRyIp63bRLWavNGYQOhpELA+x8Vv1LdTHNcDYKbLarA2OGOWfwHUk9AGRrKAAg5Bc8JXc6+WeZVfCUQC9w4DkC705CJHmNm2V+VBtwB5GL2Fcw2mBZ1E+qv72a54h9B5EnsXihG1IfMo49MACfb9KNl9tUjcblLMd0WaIxhm6jt0AKjtfDAEpyLLMKV/OcmqJ3JCtrZEWDUewiyau9l6tFngKATgQj5DhRAEDIT0SeAmP2xnnTpODwHQFXCSgpIDkg2nIK9s24jdCTCL0Ii7TEbVJ2qonuKQahi9Czc94ZY+uG1FHkYhg6qBuDtKwxW5a/XHZU1Q3iwKEA4I44cLDMtnt46UKN9DEaxR76gYI2oGWDe/LlNsF/TmOc9DycT/e7EyPyJE2cI1tFAQAhP9EPHdSNXt/GPAtDWyvNIIWtmQawno6hjUHdGJR1g7KuUTUaTWMQehK9wLn3V8WBgzhw1ivk931L9Ri9wLVzv5UAA5AVNa4XBZZ5tb5F5owhcCUCVyJuN4LWjUZRaUyT4sEXwllaYdL3IAU/2IBok3xHgjO6MTw0StpbfynsoIGbJZW17dPlPMergY/Qq7dy8fMYgjN4jsTNnhaUkZeBAgBCfmAQuXCVAACMYve3/i5tDOpaoyhrLBr786rRqGr9wxR/VtZIixqTvr8eo7jS8x30fIVpUmKalJ07MPQCBz3fgZI2o5GVNa7n+b1D/13aGCzbZUCAPcwGrkDoOXg7DtFog6rWmGUlkvbGf5GVOOl5iH1FOwFgv0bLunmxm3IP0UnPR+wrNFrTjpGOSPIKealw0nORFfVeSrBW4z+nCT2vke2hPQCEPOC07yPyFa7m+d5vVDlnGMf2oPstY/f3wBi7abNuD8p5WSPJd/viFfsKvcCFI1lb3lMjKewYyN/JVDhSIPRsdsBVAsYYVI3BMqsQuBJS0H4Gzjn+OI1wNcuxyCgD0HWO5Hg9CiE4w+2Sltp1DWPAf1717EbePTThng0DOJLj78v9Lycjx4st0tLcLL/fCknIS/V6FMBzJM47Nn3DjqnzINoSImNMu1xJY55W4AxwHVtfz9tsgTH2R1k3qLVGXjbIinpjddyRr9DzFRwlwBlDUTVI8hrLvNrKc4rgDIGrELgCgavWZVQvvWb6bGiXRNFytO4bRi4GkYu61riYZXTr31H90MU4dvHpOtl5Vi3yFU77Pi5m2c7GT5OXhxljjDHAzTLf2aIjQrrq/UkEIRg+36SdfGHmjGEYu6hqjXHsQbdLnr5thOWMwZEcSgooyeBI22ws2gVN2hibNWg0Km1QVDYweMz/c+gp9AIFVwpwztaLdJbZdg79PxO4EqEn0TRmp5OauubPVz3MfrKoi3THn2c9LNKSxjsegPeTCAzYy03861EAT0n893y+8/dNXgZm2uJhYwyKWuNimlE2gLw4gjO8O4kAAJ9ukoMYtzmOPcSBwv/On3br6yhhgwPB4UgORwoo+TWroM3XxuS8rJGXDRizE3wcabe8Vu2hf7GHQz+5bxC5GEUu/r5c0uei496MQqi2tKNrfTvke5JzvJ+EmCblzsu0BGd4P4lQVrpTy8nI8Vg3ATPG4CmB95MI1x2oeyZkVxwl8HYUomqarcxP3xbPEcAzHmpZNSgfuOlXbTDgSA4pOFzFMQgdsMhmDapGY5aWSPKKlj51SD9wkGyp5IpsjiM5PEfgcpbT4f9A1FpjkVUYRi6WebXTi6FGG1wvCkx6HnxXIutQOSo5Dt9NAWIAxj0PoadwOaNsADlugSvxauAjr2p8uc0O5oU58hRcJfDlNt3Y31nVdirRt3dNUtieAtpG3D1eW9Y1pzrhzns1CFDWDTVpH5ireY7QszX5/17v9iZ+kZaIPYVXA//JmV5CfoU/9B8Z7AvLu5MQse889CaEHLxe4ODVIMAyr/H5Jj2Ywz9gg/TVmNBtqxtNh/+OGsUu6sbQ7WDHrUbiXs2o7v8QfblN4Ujx3V6WXbiYZWBgeDUMdv6+yXF7MAAA7BgszhgmfQ+vR8G6eZCQYzDueTjpeZgmBS5n+934+FShp8AZw/WCDhMvnasEZjQrvPPGPc/Ol+/gYAHya0XVIC1rjGN352ehutG4WeYI2zHIhGzKDwOAu3xH4sMkRvTAHHJCDs3ZMEA/cHAxyw5y/ranBACD0KXvx5ds0vcBgMp/Om7S98EYaOrPgTu/TWEMMOn5O3/fs6REUTV4PaIsANmcRwUAgM0InPZ9nA0pG0AO19txCN+R+HybHux85cAVAGMPLgYjL0fgSszT6qBK114ayTkiT+J2WRzMcAHyY+ezDIEnEXq7f+69mGVtVcbuAxBynB4dAKwErsT7SbSXbwBCnosxhg+TCEpwfLpJDrZmmnMGJQUWaQUpOBxKCb9Isa9s8y9Na+u004EHAxxkppF8LytqZGWNk567Xra4K1WtcbMoEHkKjnzy0Y2Q7zzrq4gzhlcDH68GPjhlA0jHKcHxn9MIYAz/XiedXPD1WL5jB3cJsdr0e1i3io7kCD2FQeRi0vfwZhziP69iOJICmacYRi6ycnMbncnm+a6E50hq/D0yn29ScMYxit2dv+9pUqBqNM6oIZhswHdjQJ8icCU+TCJ8uUmpuYl0ku9InI0ClFWDL7eHM+P/RzzHHpRD137rng1DXM5S5GV3vv9Em6VwJIfkrF08JiBXQQsArQ0abdBoDQZbznS96M7/Q5et9jRcL+hWucsmPQ9F1WCZH2apIfmx63mOk76HJLcZgV26mKZ4dxJh3PNwTX0l5DesNwH/Dq0NPl4tD/5wRY5L7Cuc9DzklcaX2wQHdln+S7HvYBDa8YJVY3YeCDiSQ7VbhJX4euhfpca1AbTWqBrdbhVukBY1Gn3/1vp0ECBwBc25fqTVNtm/Lujj1VXDyMUwcg8+40h+7N04BBccf+/h+3AYuRiEDj5eJ6hpKSN5po0EAAZ2TNanHS/JIORHhrGLYehimVW4OLAxn08V+wqD0P0aCEw3l5G7d5svWLsp+M5tvjH2oG8M6tqgqBtkZf2kHgvBOT6cRriaZVgcaGP2Lv2fsx5ulgWmVFfeWX+e9bBMS1zSDe3Rkpzj/WmE6bLYS4/Hu5MIjAEfL5c7f9/kOPxWCdAKA+BKgWHkUrMT2bvTQbCevPESvh4XWYVFVq0DgTfjEGWtcTnLHn37uLrNv3vQV3dv87WBAdA0BnnVIE8a5GWFcgO3T43WqOoGsa8oAPiFcc8DAGr+7bCzYQAYg5sX8NzzktVaY5aUGEYukrze+bLEy1mGt+OQzl3kWThjm8kA3PX5Jt15TRwhK29GATxH4nKWY5G9zENS7CsMIw9SMJS1XteJuutafDtNiDO2/jfQ1uY3BhpmfdAvqgbJDmqYI1/htO/j49USFaW0HxT5CiexBzCsA7skrykY6BAlOd6NI9wmlKF5KT5MYmhj8M/V7m/i16VAlwlqTc+b5Mc4Z/AdCd8RCFwJKfjmAwBtDD5eUj8A2b33kwiSM5xPM6QHOuZzk+4GAitaG9SNtt/8nCEvm/Vou33XKv/nNMY8K3FDza1rrhKIfbVewmiMQVUbGBgoYTM0f18uoY+tweVAvRuHEIL6M14SR3K8HYe4WZZ72cr9fhIBoFIgcp9YHfhde+iX4vuhnxspAbqLgeFsGOBf6gcgOyI5x7uTEADw6Sbd+0G2K1alQa4SaNqDP7C6pQyRFjXOb9M9P8qv0rJGz3defADAOUPsO4h9O++70QZpXuN6kd+7WOEc+GMSox86VALQAaEr4SiB8+lx9xyR+8paIykajCIXSV6tn2d35WJqS4EGkUtZpxdMcIbAlfAdCa898BvYEv0f2XwAwOytFdWlkV1wlcCbUYhGG3y6SXb+5HsIvg2IzgYBtEGnDv8AcD0vEJ4qRJ56kaMTfVfa235PwRigbBp8vk1/2FCtNZCVDfqhg1lSUhZgzyYDH3lZ76RkjnTLxTTFf05jTPoePt/s9nm1qBrcLgsMIxfLtKJSoBdCCQ6vLelZH/iNAbuzoO5XW7o2HgCsDCMXRdVQKQbZmtBTOO17qJoGn25SaCo7+6Vx7EFKjn86mC5utEZVNegFzosJAKTgiH2FXuBAcIZGG0yTArfL8lFL3s7bg0cvdOj2b4/GsQfOGK5o6s+LdT7L8HoYIPIVljseZnC7LBD5Cq9HAT7uoReBbJ+SfF3D7zvywSW87InbqbcWAADAq4H9YqRbWbJpg9Bdb0M9n6ZHN+N/G0JPoR86uJrnnd0ge5uUeDXw8X/OetDGoKo1yrpB1dz5+RE0CUe+Quwr+I6E1rbh+mZRPHmSiDFAWjYYBDYLcGiboY9FL1CYp+VGpmKRw5QVNfKywUnsISvqnfdBUinQ8Qk9+zrhKQHOGYyxVTabsvEm4G8VVUP9AGSjTno+eoHCguZsP5oUtk+irDQ+3XT7+1FyjsBb1TEySM7vTSsCsA4GylqjbjTKWqOqdafLYBxpG3pjX4Exth4juIkpPn+e9XC7KDDdQxPiS/dmFMJRnIZfEAD7HWYwilz0IxcfL5ZbKwWyCzZ9lLWdElc1GkWlUVZNp59/D4kjBSZ9D47kT77Vf4qtZgAA+z8yit0X39hHNuNsGCBwX86M/015NfABoPOHf8DO156nJeYPlNKGnoLnCLjtQjLfkWCMrW9FGm1sYFDZDcSrQGFfBzPOGCJfoecrOEqg0Rpp2eBqnm20ZC3NKwxCB7OUsgC75EgOzxG4XhR0+CcA7HMQ3+Kh7Wdu2lKgs6GPf7Zw8doLHJy0u0hcZXfFMNx//i3a8dF1o1HUNjAgjyM4wzj21lPftm3rAQBjtlyjqDQ1R5HfxvnXpqcfUW3UTE881ih24UiOTztuTtuGJK8efB5xlQ0GXGWzBrGv7tVIamNQNwZl1aBsA4PVi9Q2+I5cj+80xqCsNc6n2daeA8+nGf4866EfOJQF2KFXgwB1o/cy/pF000O12bt03pYC9QIX83RzX5f90MU4du/9t28Dna+TaASArzXpVaNRlKtswdfMLbEYYxiEDgahs9P3u/UAYOW07+HjFl9wycuQFQ2GkQvG8GDdfz9wMO55MMbgcp7vvBmrawJXYhC6mCblUY9HXd06fYtzhtBVcB0BJRg8RyAUaj0dwZh2s3Fp/3xePj+N/X1Dr8YsLdeL2LYtK2oMQgeLrKTb6B3o+Q6U5PjcsWlaZL8MsNcsXFE1mCYFxj0Xy7zcSKZxGNmeu8f6tmxFCQ7l359Db4wNDPKythcy9cssI4p9B6PYBWdPb+L9XVvvAVixn+wG/1x1vwSBdJfgDH+cxvhym96bMCU4w6Tvw3flvdFXs6TE9eJl9glIYRfU1I2mPpzWm3EITwk7rcUAnivhSAYlxL009tegwC5I+9mzZOgp9ALb0GsA5GWDm0W+k4BLtDsDeoGCFBxaGxjYW8CcNrJv1Z+vesireudjH0m3/XEaY5GWuHliiWo/dKC1LYFsGo2qMb8VSHyYRGi0+e3n/nHsoh8+/vD/u2ZJgesXUDLuOxLjngcl2M4P/is7ywAwBighcNLzaFQaebZGG2ht4DliHQAErsTpIADD93Nv+6G9pfvyAm/pTgc+GAMd/lvvTkJIYUuhVofjeXa/AbcXOPBdCUdwBLEEg33hqxt9L1NgDBD7ErHvgHOGqta4XhQ7KwXxlEA/dBB6tsSoqDQ+3y5R1RpvxyFejwJcz/ONNBiT70369nuLXsvIQ556bA89hXHsff/3GINGG1SNRtO0/26XOmpt0Bj7evhQxu9imuHNOEQvcDBPy/WY4ac46XnoBbspS8nLGteL4qgz1YDNhpz0PPjuzo7fP7TTR8CYfYHNy+bFzPkmm1fUGoGrcLMo7jUlAfYJUxs7U14b+83mKrHHR7t7SnD0AgVXiRcZ+HyLM4Z3JyE4Y/h0nfx0VKNtPv56aBbclvX4roSnBEJXrm9rjAHSwm7o3UVpI2cMceCgHziQgkEbg3lW4Wp2f/Psv9cJRj0P49iDqwQuZ7SZdpM454g8hVlSHMVIWrJfjDFMeh7ysl73aSnJ4SgBR3AoKSA44CoO35W27p59f9mljYExQNMGCY0x0MbY3S+cYRC5uF7kmCWPuxQ47fsId9CMWtZ2BPKx74zinGEYOuiHbmcGNewlBJkMfBRXxzHPm+zeIitx2vfXTUmztMQiLVG32YG7Jn0fQQci7W1TgiPyFUJPwZF2BfgiK3+4RfalWI0/bRqDj9dPH9PYaI1pcn+8ppQcruBIdvSxdSRHL3AQ+w4YsyNQL2c5Fj/pb7mZ58iLGq8GPlwV4vNNSn0BG3I2sD1Gt0vKrpDvMfa0DMAwcsA4w5fp10C9asca/yx3yzngSgkpuB2XLDkk52DMQAoOZ92MbDBo6/fHsQdj8MvM4NkgQOBt73XTAGgag5vly+jT64eu/Ty3l0f7Kvn51t5ORmeDAP9cL2mBE3myZVZh0vMwbsfLvtSpJ0ram8j1od/Y1DCNSLUcyfF2HKGsG3y+STfWXFbXGvUOLi+itrfAc2Rb5mPHhz522VRa1Ph4tcSbcYR3JxHOpyny8rjT69vkSN6OoZW4HoQdFgAAIABJREFUmucvrlmRPN5jvzSU5BiELmbJ05t1tQayR/b5BK7E2TAAgHXG/KEggDGGs6EP39nO0XDVIH27LB6didiX0LN9VfO0ePY5NfIURrELIfh3GZsu2EsAwGBv0cYx9QOQ56nbecP7Pvx7jkTsSYSeQlbWSIoaaV5v7XDgSIGwfX+rQ3/VaNwsC9r++I3QUwAMvtxu7vC/bYIz9Noyn9Xmx4fKfB6rbgz+vljgzTjEm1GIK+oLeLSwDa5daW9YV7d2WVnTx5D83COfb077Phpttj6oIi1qXM5yTPr28H/Ss5mAxZ0eKM4YXo8COJL/6K95NvvhMJgmpQ12Ov58bIeKeODMlu1M0xLzJzxuVwmMYw+e0+3y471lABjs+KOi0ve+CAl5jKt5vrfyFsFtLXbPtzcEdmKDRuDagzn69gk3yWskefXbT3ZOW3set+/PACirBlfzYqNzno/N7bLAIHQR+arzt03A/Ya7qm5wtSg3lh7/dJ1gFNm+AEdyunh5QOw7iDwFJTkEt7ehqwbrZV6tm8C7Ur9LuusxXyGx78BVYmdTpBZZCSkYBqEdoz3pezAwWGYVOGd4PQy2tnmWMWCR2dfrfuigbBc0drUMfNL3wdo7e1u779pAoN3c/qNySik4hpEt1zyEp4m9FkczBpz0XBRV/ei0NiEA9nL4Dz2F2FcIXAlt7CH8fJrcm1oQegr9wIHvSASuxKTvIStrLLOnBQOuEgjuHvoNUFQ1bpfFT2u/yX151aDnO50PAFRb55+VNa7n+VaeD2+WOfK6wWnfWzeIH2JfQC+wC3M4Y6jbiSj1ejpK+2utUf9kjCLnHD1fwXftRmnO7cu9NgZpUa93Qhz7RJLNqmB4BoMc4AUMAKZdMHhg2gewm+2m+8bAfnn445xhHLvIyvrRZTybcLss1v1igM1AcMbQD522f2B77ztu36cB7uxhsU3ARdWgamxWf9+7AHqB813foP24MAwj15ZspbaE6e7zp+dIvBkF6+CvI2X+P7WzPQA/UzcaH68SulkhGzdom28+3aTPejF3pH2y7Pm2UatpNOZp9ajSI0dyjCIPriMg+NfygSSvscyr72o+3dVNf7tIarWkap4+vP2W/JqSHO9PIny6STpd/z5oF+3898t86+9rtR/ClkdlB3HIZYyhHzjohwqc83uHBMYAye0eB87YvRdebYydrd5oGGMgBIfkbL2ttao1srJGUbULiWhR5TNoGD6D5rOfvhXTfXDdB7D5EpMu+fOsh8tZ9tPs3Srb9/928P3+kLNhcO+Qa4zZa2OqMfcPzHWjUdZftwbvKlsgBcf7k/CXH4tVEDNPS0yTEnWjwRjwYRKvX+sPQScCAAMgyStcTGlcHdm8N+MQSnD8e508alwjZ6w99Cs4SqDRxt7MLgo0zzwgSM4xiF0EjoAU9gWwqOw43NUyJ8HtaMey0rhNihc/wWdTPkxiZGWFy1l3y17ejkMYY9ZjAHdhtRTNThTqZoZkdTvZD+wEjbyqcTXPf3kYcJWAK/8/e++V5UqyZmduE64dGgh1VN5aizWFZj2z38gRsAdQY2qOhT2CLg6hWPceHRLS4dqMDwZHiBMKEQBcwL6VmSET4RGAu/9ybyWhaHAKStTeGSNqlv9yGiLY4a7OwUAS5OwcwGuTSAaaHYNgP9ryZfC34xYuptGTRRvLYPgw8EoVsCCE4MPA28m8/za53y2Qa7fgIimIU7HVwvFZ34Vl8FdX74vjm4cqETA5w3HX2drx7JpKJACA+kNeVfhGpKk3n4Y+AKWR/tRN37E4WrYB31HmSkkmMAmSnVTfe74Fz+YwGIOERJQouUnt3rp9ur6Fvm/h7+fzSgZ8hbv15TTc+3hXv2Wj45qYh0ml9gIoLSr+JgiAKBW4nITIxPuqgLbJcdp3kWUCP2+CWo5AVQUJCcF+AmSz1yyRBkh+tp6xbhp/O27jYho+ed/4NPRBCPD1crHnI7vF5BRnAw8EpBajKnf5o1sgJOIkWyUFqmvwVl8W1+LKN2FDd97imBZhCs4p7Jp4D1UqAZho+ULNDvly1EKa5feqrJwpo6f2auwmyyWCKMXNItYjaQ3ib8dt3Cxeb4KzTzqeib5v4T/O56X8fNcycNy1kWSi9L0ARgm6nrlehg7THJeTcKvHZHKKD0MfWS7w81onAW9F0DHkC2M/T0FFB0T0tnxE1eCfTtr4PV4+amzVcU0M2jZ+XgeIShq9swyG074LQpqVgj3WLYiTbL1bsMmoY8tR8p2UbL4XcTENcdSpRxegUg5JVd0I1zSDnzcBPg58HHUdLOMMHVepMEipZvPH8xhxVv15aM3mRGmOjlvNZWDPMkoVQVjGKb5d5jgbuPg09DHdQOJSSlUJlvL+++pr8tGvr/5Zf11ICYNRdH1rvSgYRBkupuFOkvAkE/hxtcCHoY8PAw8/dBLwJiT9c379+48f+P/+5//E7/NziFzg7OwU//d/+S/48PHjve8TdAoquo3tAjz2smWUoN+yECZ5acG/bTCc9F3lJtww7v5GhBDYBvujEp/mqkOQ3tkveKxbMA9TLKIUXc9SXchXJksSgMUpJkG8HlusMpXpAABqPKMOC2ma+uJaHMc9F5BAmqsFW63p3XyqugxMKcFfRy1czWPMKmBod9x1wSgAAjDCAKKi9UIFg5DbhcH1vW1VeiMgkJDqRvmG6qKUch347wPOKT4NfORC4OfN8s1jAwcJiZCz3/c+dX5+jv/3f/wPiPz++UUpxb/+67/i+Pj43udZfgJIe+eHum/+6aT96HVm1HHg2wb+47ycxV/HVGZgFY9J985smeBmHj85Hqq6kioReDh+9Bi5kPh2ucDnI7/yiValOgA6+NfsGstgIAC+Xi30Df+ASDMlE9l2TURJdcQGfFvtm1Qh+AeA88lulpA5pSC0UOkha8UeSlS1bti28Wsc7nUHJssEvl0t8PFOJ0BfE16HJH/ui/zb//pffwT/ACCEwL/92/+P//pf/9uDx4hBGpYAFOpSD2NJ22RoOUZpezZ3nYAPHdWNlJgun9f0LyiM2mZhgkHL/kMi9CGMElgmw/Uswqjio0CVWQHXLVjNPmi7JoIo1Tf6A2QaJPBto1JVGdfiByE9mQmxbrtHSYYwVr4Y81B14ISUpSiSZLnA98sFCFFKTIVCl+Z5JP7smo7H4ye/fzyevOox6k5xbXkYzRx1HKSZKKXb7NnGwQf/RUIWJjnOJ0v8/WKO8SLeKO5MVztSP28CpNnT6kNSAp7FMQ/Tyhe1K3O10wGZZteYnIJRoo20Ggy9o/H+kEkQQ0qg5VbDkIgSAtfiWERa+UlKCc7KScwyIfD1MlgnAYZOAl6G/KlyYlvWk99u249U+knz/s70dgt1/bmub4ExurPu2nP4jlErWcptI6WEkBLTIMbXywV+3QSPLmdvQpTk+Ha1wNUsQi7kH90eQpTLMwBcVkhZ7TEqcwZWPVPS1J9h20Eu5LsvAJpq0vUsfB75+OuohVHHhm3+2aqNErUMXAVcm0NKpX526GS5hMnLk84TQuAfFwsQAB+GOgl4CSL/PIdOT0+f/P6zD2eveoy6Uyx9FkEhZxQ9z0IYZ3tf9G+7Zm3UaLZJEY/HqcDlLMLfz+e4WcRbLzLPwxRfL+frwtLDRMCzDSRpjtkyqayiYCWuclJKZHoESLNjLJPphd8G4tsGPo/8lWybugG3HBNnfaVq0/VuP385D8FZNXSaPYsje2Rm+hDJRbkJAKDuQ3+/mEPKVRJQcZOkMiHyzy7av/zLv+Cf//k//fH5f/7nf8Z//r/+858P0sAE4OEI0LCtOh+/x/ut/nc8a/2zD4VCWWy+TPD9aoEf14tn3Zi38jMlMF7E+Ho5X3tYKZEErBXNlKT4Tg/jzVRmCVhLgGp2Sc+31tbdmmZgGQyjjvPs7LjBKXq+iZ5vIYhTzJYp0kyg7RqIpuUF34QQuJZRmhNo1UgyAeeRjk0Z/ONiji8jHx8GPn5eB0i0NPCfSFsF8OT2ekopxX//7/8P/vGPr/j56wcA4Oz0A758+fzI/2+CyKdHhupKsV4kpYRrcbgWx+WeVK0Ker6Fnt+8v+1zpLnANEiwCNNSzB5zIXE1izBdJuj7FjzbgGtxUEIghMTNIsagZVVOFrQSV1xCiE4ANDulWP7Vy+b1hzOKvm+tHJtf/v7iouvbxlp1hzMTdPa09NuuKZQktPGhIk4yEM8EZ7QS+2D/uFzg88jHWd/Fz5ulTgIegYqhcgJ+wJcvnx8P+u/9v6NdHVap3A3wRh0HSZbvdeds0LLR8ZrXWXmKRZRiFiSl+So8JM0EzichHDPFoKUSgXmo1IY6rgmDVysBqEyPU19gNbtCL/82A0qUkc7nkQ/PVu3VtxZUCMGLcm67xLW4TkbvEKZqL6dKKjxfLxfIpcRZ34VVgZGxqkGkCSI6m/9/ovvoCFETKJaAu54JSgnOJ/ur/jsmP6jgH1DKblUJ/u8SJhm+P/C1upxVR366oBJXW30j1OwSvfxbf7qehc9Hap4feHvgDyhX4J83Syyi8hJC3+YIYp2QFgihZnirtnz77XKBXEic6iTgUajogYjeBt/fBRXdHR5RuRQdgI5nIYiyvU42+CtRgUPiuOtU2tjsbmE7SnIswrRSz1ElRoCq0PLVNBfLZFpppab4toFB214ZSL3/8XIhESU5HJPBMf8M6MTKJKYwixF338ft1+5+flNci4MQgvFC76PcRQhRmhToc3y7WuDjwFuPA2nFuvtQ0YEUNiS7hCSPF1mI5CD5CATNnk2/qwJ0sWfZT98xKx0M7wLOKAYtuzSDtU25nkfwnOp0vyqRAOgLqmZX6OXfemIbDMMXFnzfQmHrLgudDgngkZsmWf33NTfUu8kCoJIIISQk7iYLt+/bBkMmJITQhY+7CCEr1wEo+H4d4MMqCdi3Y3EdILBA8o+QJAWQA0jUSSRNAKyxIz8PKUaA8lzAsTjCPXWdi5HIQ6TtmljGWS06/LmQGM9j9FvVSIRLTwCklMjyCvVENI1CL//WC84ohu2X7dbfigQwXca4mW/WESKEgDMCRggIUWZjlBAwqpKE4mNCCCi5rQQySsGJyjII1OgSIUQnpI+QC8Cs8JjNj+sAZ30Ppz0Xv8dLhDoJ+AMV6BsA7D/tcA+AOM2xjDNwSnDac5HlAtNliumO1b58hx9c9f8uRx0H364WtbjPT4IYHc8Ee8Kwcp+UngAABKkeAdLsAL38Wx8oJeh5JjqetdMZSQKg41qYBslGNwspJdJMQr+SdkeS5fAr1B5/jJ83AU77Hk77Ln7d6CRAcx8hgYtpCCHkeil30LLQ800sohRX0+2PqlBK4FnVPm92DSEExz0XP6+Dsg/lVVxMQ5z23LIPo/wlYEKAVCsAaXaAWv4VtWgNHjJdz8KXUQvtlUPvzitZBOufpakOcZqDrrorVebXTYBlnOG078IpUUlKUz2iJINYFRbCJMPv8RLfrhYIwhRtx8Tfjts46XngdHuhl5I23trD1RJC1Nhox6vGaM1LhKuRpbIdgktPAADs3SJbcxgo519ds60yRx1H7WkQ7M0kheBWpq/pcE7hOQZ6voXjrouTnoe2U83kJ0xUIaiqewB3+T1eIogynPZ0EqB5njQTuJxF+MfFHJMghm1QfBr5OBtsR1mq5RgHPf5zl0HLKt1R/LVczaLSjcFKv3JpBSDNLtDLv/WgvPOfoOOatTbi4pTCMhlMTmFwBkYBTgkopeuE6rHbi2sxDDo28lwgyyWCONv5jPJryHIBKZV7cx2EIc4nSxx1HJz2XJxPQgQlyspqqk8uJMaLGJMgQds10HFNfBh4iNMcQkgQQh6sTUgQkLV4QCEmIFYfQ6pzXMvT3iKlkgb9fr2ofFckywXGixjdVayya+7qXUipOq46AdA0kpZjIIj18m/VSXNRSvWKEKDjmpgGSWluwK/BtTgsg8HkDIypoP92wfhWcjAXQkmcpjmyPEMuJLJcIFu9FXfOA0oJHJPDNihsk2PQsjBoWciFRJLliJIc82WKrASVIimrqwT0GBfTEAIq6DifQCcBmheRUmIaJJgGCXzHgMHoWjigSNzvyh4zRmCsPngoMqC5DyGqgNBv2biugTToJIjRdnezEHw34C+u60kmVm9VgaX0BECP/2i2jckpOKO10QY+ZOISz39CgLZnVs4jYtRx0LqzDCuERCZUtX4Rp8ilRJqJdZC/aZIrhEQQpQgiAIhBCYFtMtgGg21x9HwLPd9aP36U5JiGCbI9PFdCykp6ATzH1WrpUycBmk1ZvEOgYti20XLNvVSP60ZnJQ26LxnWtyKlGgU66thbTeqklEgytf84CZIndw1KTQCkBFItAarZMgPt/FsbkhJHPQgh6K66ANtcxmKUvKvztAhTtBxjb2MlQspbHe1FvFqo4yopMJkaV/BMiJVkc5RmmAXJToo3mRBbXZDcFzfzCJxRHHcd/O/fOgHQ7JaOZ6rZ/7IPpMIc10QaNIhSxJ4Je4ujXMVomMkpPJvjZh4/Gg+VmgBoBSDNLsiFAAEFJaTS4x0aRZaXV/UllKDtmu+egTc4Rcs20FrtFbxn9yRM1AiPY7JSqslSqmO4K3GpkgEO22DwbQNtp0gIBOJUYBGmW5HEZIQgyut5T+CUrFvrGs2uaDkmBi277MOoPIQAR10Hv27268i8CQajGLTtrQb/dyGEwOQMJz0XcZrjahbd268qfQRIewBots3FJMRfxy10fXNjwyfN/onSDD4rR8e6UAR6SwJACYHnGGg7BiyDQcrtSZiGSQbfMSozxhYlaoa0wDKKhIDCtThajrHeRVAJQYLgDR04SikyUc/Oncmp9hzR7BTX4hh1dPD/GgghK2lQ1eWtEpQQ9Hxzr7KllsHwYeAhjDNczyMkmahAAqB3ADQ7YLJI0G9ZmC1TvWhecdJM3FtY2jds1QV4bdXeNjlaDodnG2puc9VkuvPuu7mZxfCPDHi2UcmZ8jjNEac5pquPTU7XHQLH4vBsd6VcAiSpwCJKXjXvTAhq27UjhNRCvUhTT2yT47gC5lF1ghCCQctGGOeV6c51PGUMR0ta5HYsjo+Wj0WYlpsAVH02S1NfCrvtYdvG73F1W4AaJQRQ9ixrz7eeTQA4o2g5xlq1Q0p5u7S1g4PPhECaCaVmVcEE4CFJJpBkCWarjw1G1x0Cx+I46jgYtW3kQiLN1RLyY39vAjUSVjf8lRZ7pBMAzQ4wOcNpzyn9OllHpAROeg6+Xi5KPQ7PNjBo2WC0GipOnm2UmwDo6r9mlxR227bB9I25wpS5CFzAKEHLMTEP7welvq2Cftfi90Z89nEBX0Qper717qXiMkhzgTRMMA/Vx4wSOBaHxRkci2HYtjFo2xAr6dEwzrGIEhBCkK/kRykhYIyAUQpO1fvLKKvk2KhvG2vVJI1mm3BGcdZ3KxE01hFC1PVn0LJxPd//SKVpMAxbNmyzWn4NhJS8A6DbpZpdEsYZkjTHsGPj+1VQ9uFoniDNyx0BKuj5FuZhAmu16Oo7Bhgla0OZfd9/x4sYXc+E77x/SblsciGxCFMskALzWy8Cy6BwTI5+y0K/peZhT7ruk87QYRIAFbxtWAarvOSgpn4wSnDWdw/CtXyXEELQ8Uwsk/1JgzJKMGjb8O1y9tteQ2kJgARKMZrRHBa/pyE+Df1Hq7ua6pCmOcySHS05I/jruAW6cuQsbrkbBf5bLtTHaY6Ww2ufADzkMS8Cz+bwHQNZrnwOklwgTXOkuYBnGzjuOsgrWmGnevxHs2UoITgbeOA1MsarOsddB98udysNSghB1zPR9cz9V402pLQEgECPAGl2T7Zyvhu0LSyidKt675rtEVUgAZAS68WsN1+2t3y9nwQJTnouDE4bfb0UUmIepk+q6JhcBUFVHIVyTK7HMzRb56Tn1MoVuw5QQnDcdfHzZjcTAUqi1QKhpPSO9mso9dXV5BuapjqcT4K13KOmmqS5QNm5WRVjuGWcQQh5zxn4EOGMQlQw+AeUZOsiyjBo2fg09OBVuOWvqQcnPRe2WbpIYyOxDIa2u91YwDE5Pg49jDo2aE2Cf6DsBKCi7VxNsxACmK8WKnU7tZokqahkAF4FwiRHyzns5NVgFFlFEwAAuJgs8R/nM2Q5cNSx8WHg7czcR9NsjjoOnIotjDYJQoBBy4bB3x8LGIzipOfitO/C5PV7zkqLhrRagmafXE0jCCnR9/dnvKF5PXFFNJqryPU8AqMErnW4FUFC6nHP+DUO8O0ygJASp32vtoGBphx6vgXPMfRI2Y4hRHVZ3golBIOWhU8jH06Nr8ulJQC6+q/ZNzfzGP7KtVVTLYSQlR3xKJssF8iFrLSaxK5hlNQiAQCUuMWvmyV+XC/AKMHHoYfjrrOViqOmuXRcEz3fqs34SN3hVAXxm9LxLHw+8tcuvnV+vkq7IlVB+1tzWMyWCbJcYNjWVupVJNE7QU8yD1N4tlGae2TZ0Bp6ISSZwPerAD9vlrAMjk9DH6OOA6YlHTUP8G0DA31f2itKGtR6dQXfsw18HrXQb1mNuQ6XkgAIqdwgNZp9czGNYBlML+pVkCjVOupPcTOPAEj4B7oMTFC/BKAgSjJ8vZzj93gJx2T4fLQKInQioIFaID3qOmUfxsFy3HGePRdNg+Gs7+Go64Cz+iz4voZSEgBKiB4B0pRClGSI0kx3ASpImslty+g3iiTLD3YMqC47AM+xjDN8vVzgahqi7Zj4MvLVyEdDqomazbEM9q5ZdM37oZTgqPNnAsYowVHXwceBB9tkjQr8C8rbAdDtfk1JXIwjUAJ0vfIWggkhaLumHge4Q5LljbzIbovJMoVtsoPTBjcq7AHwFuZhir9fzDEJEnQ8C19Gt/PEmsPB4BRnfU+rn1UA1+JraVBCCHq+hc8jv/GTAqWtL9e9mqOpL5kQCJMcXd/ELEz2vnzq2QaGLQuMUQzbNsI4wzxMsYgeN0E6FBKtBPQsQZhCtm34joHxolnOwM9RqOg07Z4xXsQYL2IM2zZ6vnIOvZnH2rH8AOCM4oMO/ivFsG2DUYKOa4IQchDPTSmlJD3+oymb3+MlCAh6e6y8cUZx2nNx3HXA7lRxHYtj1HXw11ELg5Z9sCpFUjYvyNs2YSLQ2bKJTdWpsgvwNriaRfj7+RxhokYTPx1A5fGQoZTgtO/qHZAK0vXUbs4hBP9ASQmArvRpqsB0maDjmXuR5+t6Fj4NPdhPKA4QqBtD2zPxYeDh01CNBRzaiFCsRwOf5WYeglJyUC6hVXYB3iYXk1CZiWUSRx0bH4f11hjXPM5x1zm4Mb66cCiBf0E5HQB9k9dUgJu5Mgcbtna3EGwZDJ+GPvottez30vWl+LrBKfq+hS9HLRx3nYOpCGp54OdJMuUJ0LIPJzCsugvwtlmbiQmJk56Ls753sF3BJmJpYzhNRdh7AqDa/IdzMddUm6tZBMfiW6+0UUowatv4MPDe3GEoqhGebeCo4+DLSj7QbLChUJKJeisB7eHgF1EK3zkcT4AmKABtSiYEft4E+HG1ACHAh4GHk557cB3BJqJHfzRVYe+RBCG6A6CpDoswRZrlGGyxC+A7Bj6PfPhbnNUmRMmSdTwLH4c+Pg59tF2zcUFgnNZcCYhg58/J9SwCQNB/g4tlHeGMHlwCUJBkAjerhW/HVGZih9IN3BWuxXHUcdD1LfA9j+Ls++dpNM9RSh9ZLwFrqsTFNMKHgYe2a2K2fLsCh8EojrrOTtv1RWhpcopBy8KwbSOIUszDFMu4/kZaWa7cU4+7zl52M7YNAVZOkVgHbrvgehFj2LKQC9l4RSBCmrsA/BqOOg6WcYrf4xCnfQ/HXQeLkONqpkYYNS/DGUXLMdbSy7mQcAnQ9y1EaY7FSoVt17smuoOjqRKlJACHWs3RVJM4zREmGXq+hXmYQr7hptrzLfT8/VZkCwMh1zLg2QZyITBbpqqrUeNzLMlyfLtaYNCy0fHqqXjT8Sx4joHf4+VOOp6zIAanSq86ywXmYXMlZOvsAvxehm0blBBczVSS9+smUBXsroOPpoeLaYQoqX/ivyt820DLNeCYHEJIRKnA1TxEtjonW46Jjmdi0LYxbNtYxhkWUYpllO0kueKMQkqpzd80lYDIt0Q77yDNBL5dLfb5IzWaF6GU4svIwyRINqqo2qZqJ3NWjQu6lKpiGiUZ5mGGIEprXSW0TYbjbn1nn6WUuJ7H7+osPcdx14Vnc/weLxvRAXqMfzppN/r3ewrGKD4PPYwXCSbBn9ek074Lx+SYBDFu5s3uAm2CwSnajoGWo/Tcs1xgukxePAe7voWWY4CvrjVBnCGI1DV0W7RdE4OWdn/WVIO9JwBBlOJ8Eu7zR2o0r+Ko68K3Ob5eLl7sUjFKMGgpU6aqIlf/mYcJrmZR2YezEZ5twDYYrucRKCEYdmz4NZ19llAJ2cUk3Ekl+6zvwjI4ft4EiBumomRwik9DHz+um/e7vcTHoQdKCL5ePl0wazkGhm0HuRA4n4QH9zcqIITAdwy0HQOWwSAksIwz3MwiZGLzDtygbcOzVTIghMQiShFEGcJ3dlvK6BRrNE+x1wRAApgu4p3Oxmo07+Fvx20EUYqL6dNJats1Xy3rWQWklLhZxJgG9XAY9SyOo56LRZji8s7z4NkGRh27lovPUqrr38VkN5XszyMflBD8uA5qPf71EM82cNx18I+L+UGNAbUcE6OOjZ83AaLk+aCeUuCs58E02Npd+FCwDIaWY6C1KsQkmcAkSLZWteeUote24Jp8tTsgVvsC2ZuSrWHbRvvAjPw01WW/OwASB6XnrKkf40WMfsvCdJn8cYE3DYZRu35OvYSoWfFFmFY+iPJW882PhfhBlCJKMow6DtyaGSQRohaET3ouZssE1/MI2yy9fL1c4K+jFs4GHr5fLSr/PL+WprsAP8WgbWG2TF4M/gFACOD7dbAaL7HhWRznk7BRieDlfb51AAAgAElEQVRdKCVqoddRJo65EFhE2b1iwbbIhMDlamLB5BT9lr3aG7CQ5RLzMMEiSl+958MqMiqq0QAljAD9vFnqpSVNpfly1EKWC/y4DgCoALrvW7VdSAVUBXoRJris+CiQySmGbRu2yTF/0AG4S8s1MazpLK2UErmQWx/ZYJTi08hDnkv8uA5qvftRMOo48CyOv1/Myz6UvXHSc2EZDN+uFhur0jBKcTbwwCnBdBkjzSTSPEeWy9qLbzgmR8sx4DsGpJSI0xzjRfLusZw3HYvF0fOUJwulBEkmsIiUAMNzf+ePQw+mNgLTVIS9JwCH1srV1A/X4jjpubiYhJBQbdu6LqE+pC6z1AanMBh9dlyGM4qjjpJdrWEeAABbH9kwOMXHgY8ozfDrZrm1xy2Ls74HSgm+H4hwhGUwnPU9XM3Cdyk79Xxr5RNyqxYmpapop5n6NxMSaaaSgzQXb1I/2zWMErRdEy3HBGfFCE6G63l1ChlKXtSAyflagGERZY/Kin45ajXmXqKpP3tPAP7379k+f5xGszGMUpz2HJg1G/V5DUma4/uqs9EUup5VW1MsKZXs6fkk3FqF1jY5TnsOglgtHteZDwMPuZD4Pa5/MvMaPo9U9/HnzfbOUU4pbIvB4gwmZ2BUKQyRB6Z1uVBdgiQTyHKxTgyy1b/7xLU42q4J1+KQAOIkx/U8qnzx4q6SECEEy1ipCAUrWdF/OmmXfYgazZq9JgBJluP7VbOCD02z4JTi08hHJgQ4pbWtLD/H1SzamSxlWZic4ahrw2C0pmNBwOUsxGJLev6+Y2DUcWovuvDlqIUgSmunYvVW/nbcwjLO9qqUZxsMlslhcgrOCAxGQQkBofdFDrJcIM0lkixHvkoO0kxsrXtgMArfMdDxlMN54W9R16XmfsuGb/O1+28QpdrFWVMp9rpJl+zAEEej2SbHPQeEqJtRUxm07L24Xu6TorhQV5k9QtS8u28buJiE757fX4QpOKXor9yCpzVN+AgOawH4ZpFg0LLQcnLMw/08Z1GaI3qisk4pgbNKDixDdQ98i6vk4I4Kmlh1D9KigyAkslVy8FL3wF8t9NomW0nm5riehbWPF27mEW7mKyWhlgXPrpdwgab57O0VKSV24oip0WwD22QYdZxGB/5rCND3rUZWVceLGMs4w3HXAatZB4cAcEyGTyMf55PlqxRgnmMSxOCMYNC2kQm5VUOjfUHIYbkAT4MYrsUwbNuI0qz0e6ZYvW6e6tubnMI2OUyDwWQUJqdwLP6HRHIxRqTGi1T3wDEZfMcAJQRpluNqFmO2rGe1/zkyIXA5DeGYLdDmTZVqaszeRoCkVKMH+6pqaDSvgVGl8NM6QG3m71cBkqzaM7VvhRCCYVsZtdUoB7jHZEvjO6c9D47FaqnAdqguwH87biPLBb7VfPnZsThs43b3gDMKRqnKdldmXddvNOuqEx3PwqCme0qa5rLXHYDXmJpoNPui0M0GUKtK8TaQEkhz0Xh1FbfwFaiJadtdpJTIVguw760Efxh4MDhVRmE16cQesguwbTCcDjxMgxg38+ZVxQ8JSgg+H/m1NDDUNJu9zDsUutdJWo8bzyEyaFno+xZcizc+GDY5w4eBh2HbVgZNDf99H6PYc2g5ze58LOMMXy8XCOMMdRskIUQtZH4ceO92D/1xHUBK4EPfWy8lVp1CL73u+vVvIUpzzJYJup4Fp2amd5r7dH2zdsUHzWGw8w5AIXP3e7w8qFnOusAowXHXgWWsbjIrx9IoyRAmOcIka0zXhhKCnq9cHCWgL8pQM75fLxeNMI16iZZjrJK+ej7zYaJkPd9zHf3ruIVcrIzCKn49/jTywSnF78kS4YGNABV8GnpglOJbg9ydDwnOKD6P/LIPQ6N5FJILIQnIzqqgE93CrCwmZzjpOUoT+pGvCyFBKYGUwDJOEaU5wjirpTqD7xgYtOx7xjgaQAKYBUmljHV2Sdez0PPN2r4GhAQuJm+fieeU4uPIQ5rdOl1XDUoIPo18UKI6OK5t4PfNshTH17JhlOLLkY8oybfqDaDZD0cdB76jpT811YRMg1gySsAZXS3o3L8xSilV61yqwOm1900J4GIS1lJ54hDwbANHHQfA60dghJSgK1WOZaw6A2GSVbpFbzCKUc3dYvfBt6tFbWbD3wOlBH8dtco+jHczWya4mcdv6tyYnOLD0McySveqN/8aTM5wNnAhpdoZSzOBYdtGyzUPNgnwHXWtvp5HmAZaRKMuWIYaNdVoqgr591/TP+4glBJwSsEYAVu9T6mqHhXJAqME9EGyIKRE0U34dRMgbMjoSNPYhla6hEoOlYSbQFiMDMVZJcZJCCmqvVp54SWklIgzgZ8VrQhvmyKgrHM+KCWQC4HzSfimBVnX4jjuOpiH1THZci0Dxz0HSZrj13h5b0Rp0LLR9g43CTjte3BM1mjlrqZxNvBgN9BNXtMcHk0ANqFIBoq3BiPrhbU4FbiYbs/iXvM+KFHz/ra5/UVflfypLlG8GhUK0xxRkmHf+YBrcYw6jh732ZCL6facaKuMySk+DpszlztexG9yS207JoYdGzeLGJOS3VY7nom+b2MZP92VOPQk4K+jFoSU+Ha12Ps1VbMZnm3guOuUfRgazbO8OwF4DEoJOq6JjmuCECBOc1zOooMYMagqnFGc9l3wJ+b9t83d/YEoVeNCyzjbqZwfZxTDtg1Xq2a8CSElvl4cxkLwh4EHqyHVOQl1jT1/g9BC0Q28nIaYl5T8jToOWo7xqkRmnQSMd7cYzBmFbbLKJcOWwXA28LAIU1xOqzW6pbnP55FfG7UtzeGykwSggBKCtqcSAUoI0jzH5TQ6OE3nsnFMjuOeU6oOcbE/IKREGGeIUpUQbCsp7PkWuqtxH13zfxsSOBjdcd82MOrUVxHoIcWu1uU02njvqgjAf5VQWT/ru7BNjsvp600i+y0LHc/aWRLw5agFRgmCKMP5ZLn1x38PRcJ2iOZodaHj3frLaDRVZqcJwPqHEGW61HFNcEaR5gJX0+gg27j7pooXo7v7A3kusEwyRInAMk43rmDaJsdRxwajpDHBXNkcykLwX0etP/aYmsB8meBqHmMTheezvgfLoPh5s9xLgYYQ4NPQB6MEv8fhxveCvm+h41u4nkaYbdFd/qTnwbVuO0NZLvDzelkpp9rC1O3bpZYGrRrK9KuFBl5WNA1kLwnAXVquiZ5ngTOCLJe4moW6krEjRh27FkZPUgIStwvFy5X3wHMLxYyS9biPDvy3hwQQH4jkYM+30PWsxqlDSSkhJPB7vFkwXwTk36+Dne5tGVyZm4k7Sj9voaiGZ7nAry24JbccE6OOjYtJiEWUwjGVizQlwNUsKm1E6iGUAl9GbcRphp831epQHDr9O51ojabq7D0BKPAdA13PhMkZciFxPY8qN3NZVxglOOmpil4dEUKCUAICNdu8XI0MFe3+YmEQkDr43xFFENRkmiIJ+hxpliNM8rVk70sV4y9HLUgJ/LjeTXXZsThOey7STODnTfDun2EZDMO2DZNTLBO1B/EWOKX4fORjtkzuqSIxSnDUceBYHGGS41dFEuPi7/jWBXDN9tGmX5q6UVoCUODZBnqeCdNgyIXAeJFgttRax2/FMhhOei7oKoBuAsVCMQDkQnUKdNy/W/KVQ/COjcJL56jjwHOMxpwrj1Hs3wDKlV3t4IhHO2yUEnwe+chyiZ/XwVYXwtuuhUHLQpio2fptvrTaromer7o51/MI8+VmyevnkQ8hge9Xi0e/3vUs9FsWciHx6yaohBni55EPKdXInqZ8RivTryZfSzTNovQEoMC1OLqeCdvkyIXEdJmULk1XN3zbwKjr6AuQ5t1IKTEJksZXF+2VssohIeWt+V8h2RulqlMgpQRnFB+HHuI0x68tjZgMOzbajrlTZ3hKCXqehY5nIs0Efo+XSF8xynTcdeFaDN+unh99WhdXCHA9TzBblnduFBKuP68DRFpUo3S06ZemjlQmASiwDYaub8G1OISUmC1T3MyrYVRTZbZh7qXRPOTb5eJVQVSd+Tj0YfJ6jsu9l7sL+QAQrQz9pJTo+RYWUfZuyclCZWgTpZ/3YHKGYduCZTCESY7fz4wFFXrt5690raeEYNSx4dkGwiTbWoK0KX87bmMWJriuiInboaNNvzR1pHIJQIFlMHQ9E55tQAiJRVQdx8oqQQnBcc+BY2rte812kVIFhL/eOFddF1qOgWFHd84ArMdy7o7YvXfO/MPAQ54L/H7C4GtX+I6BYdsGAVkt8d5PPiil+DLyla7+bLNja7kmhi0LEsDP6/2OBJ32XVic4evlYXh2VB3X4jjpuWUfhkazMZUte8VpjvNJiG9XCwRxhrZr4q/jFo60u949TIPp4F+zEwhRy4aebZR9KDtlHqaqFK4BIfeDfylVd7Fwd38LlBDkJQSqizDF14sFpssYo46NT0MfJr+t0n4ceMqbZsPgH1BSq9+vA+S5xIeBv7fuq2cbcEyO82mog/+KMGxXS2Zbo3ktlY8c00zgchpisojR8Uy0XRPesYFlkuFiy4tkdSROtYSqZrcM2/bG5lJ1YxLEeoTuEYpkYNC20XIMBFGGRZRuJBNKKYEoSa9eSImbeYx5mGLUcfBh4GK5GnFiFPh59fauRJoJfLtaYNi20fMtOBbDz+vddstGHRuLMN2ZC7JmM9orbyONpo7U5pWb5gJXswj/uJhjtozhmgxfjlo47XtgB+y6ISUOwrRJUx6UksYHx1p57HkIVLex55v4PPLxaejDsV5XPyIAyvarSjOBn9cBJkEKb9XVuphGW/E7uJpFOJ+EMDnDX8ct2DvqyJ70PEAqlSNN+RDS/OuiptnUJgEoUJ4BMf5xucA0SGAZSnv3rO+B09r9OlthGWcH3wnR7A4CNQbS5EpXLiSCSFdVn4MAa98Ng1Oc9lyc9NxXvS7KHlcZtG18OWqh55uI0xyXr1z6fS1BlOL7lTI1O+27GGx5LMSxOByL4XoeafffitD1zIMuPmrqT+VHgJ5CCInxIsY0SNDxTHRcE59GPuI0w+UsOqiqeJzlWhdfs1OkBAYtC+d7XuTcJ9NlAs+u7SWxFByT49PQxySIMQmSR30jCClnBMg2GPptG9Zq7n8eJpgtUyTZbmQzs1zgx3WwVmRzTIbvV9sxDjvqOIiTvDJuxIcOO4CuqKb51P5uJ6RKBCZBgo5rouMZ+DT0ESXKQbZAAsiEQJ5LZLnYqdX9vokSrQOt2S2ErBYQrebOH0dJhjQXMBrc6dg+yo27u9rPup5FjzpIl1G0Pu65EELgZhFjvkz21oUYL2JESY6jroO/HbdxPlneuxdtylHXASUEF++UY9Vsj74O/jUNoPYJQIEyLooxCWK0XRO+zdFyDbCVayx5pESuqlVkrYUNAEIICKkSCynVaIAQEpmQyHOBTFQvgchygVxI3Y7U7Jxh28a3y+Y6j06DBIO2rSVBX0lxXSWEgEiJUcdGxzNxMQ3XXVhCsNOxFbWAyzELknvJR5rlkACmwf4Nu8Ikw/erBY46Dk56Ln6P35YEWAaDZxm4WWxnX0HzfkzO0HqHKpZGUxUakwDcZbZMHl3qY5SAUgJK1FtGbj8mZPV1QsDY7ffYJrk3+3oXCayEswkA+egcfpxtz03zOeI0h/vKpTxNNVGvH3nvtZavEs4ky5HlEr5jlFqh5pSi51uNdQieLRP0W9aj57vmeSglSLMcjBJ8GvrqOrwaWRFiN8Gra3H0fAtxmmPUdTCUNuarn5vmstRrYi4kFlEG22Rv7gAcdx2kWY5poJfUq8KwY6O462s0deagIsZcyHdVop5KIExO0XZNBHF6b/fAsThMth93wCjJ4VhcX5RqhpQSaS6QZgJpLpCtRtSKzz3kPXrs24AQtfw2DzeTgqwTl9MIx9pv5E1wziAlMFum8B0TLUd5SOyiAcAZxVHXwTLO1m6//ZYN3zbQ8SwICVCifAjKWkJuuwbi9G0jmoO2Dc4ovo+3s0egeT+uxbXjr6YxHFQC8F6eSyBc2wCjBBd3KqOUAIa9n4AtSnMd/NcIISW+XS42SkgpIdUY81rJ3102dCZZKbrkr1a40dyiuqUq8J0GCQyDwTXZTgLwk64DKbEO/gHgZh7hZq4kS/urRdzjnoPz8f6Ns0zOYBkMP9/QATYYRdsxMF7EO1ta1mzOttWdNJoy0Xe3LXE1DeGYHJbBYJscg5aNlmOCMoKPQx+jjgOTU4w6zqv1szdBG4LVC0rIxt0og1fjdCUAfNvASddp7KhMkgl8vwqw0Korb6btmrBXr9ltSzQP2jYMzvDj+vHqeJLm+D1e4td4CdvkOBu4oHtOnluOgVxIRMnm1+aTnot8pXSnqQYtx9QCAZpGoV/NW2IZZ8hyiQ8DD2d9F75jIErV7GaWC/g2x8ehj5Zj4Ljr4KzvoeO9X0nAYBS9loXTnvuoBJ+mutANg2fTYJV5jgkBHMvAx4HX2Cq5kBIX0xBXM2289BYIUXsBEkrJZlt4toGOa+JiFr44hhYlOX5cBzAYw4fBfk0jW67xqCLSS3R9CwanuGiw5G4d6be08o+mWegRoC1yOQ3hWByTRfxou9mxOBxTtYVNRjFoWRi0LAgpEac5oiTHdJk+uTDHKYXvGHBMDoMTMErX+v9pppSAOGtmRbaJMEYgstcH9CYjlaq4EwJwRvBx6OHXzfLNs85VZ7ZMECU5TnoOGK3Wc1AHCG6Nwy5n71OzMTjFUcdGEGcIXtmdSdIc368W+DDw8HHo48d1sPP9lZZjggC43jB5LPTlp0GCqKHnU12JkgyuxfX5r2kM5N9/TatRUjxAOKOwTQaLMzgWg7kyrJESiLMMSSpgMAaDk3tV1jQTKmFIc8SrfwElh9f1LG0KVhN+Xgcb3eTP+h5ss7oLaBeT8E0Vz7pACcFR14ZrGWUfSi2RUiWN40X8ptEWQlSySQB8fYMULSUEn0c+QAh+XC92ahb5YeBBSvnH/L9nP6/i1XYMUErw9XJRunuy5j6cUfX60Wgagu4AlEiWCyxCgQVSYK5uUPaqQ+BaHC3HQCYkoiRHnKkq5HNVVm0RXx8kAMYosEECYFZkB+ApRh0bBqeNnVsWUuL3OETHExjocYCNKQoTPd9CyzFwMY02mo8/6tjglODr5dtUcYSU+PvFHJ9HPj4Mdte1KpZ/f1wH4Jyi65qwTQaDs1cJNSRZroP/CpLlApMgRsfVRTZNM9AdgAbhWhwnPbfsw9C8Agk1HvCYX8VjMErw5ai124PaAhJAGGc4n4SV2VfYBZbBcNJ1VBKneTPTIMH1/P6YjMkZTnrOo7sliyjdymz8x6EHg1H8HocI37Ck+xyjjoOWY6w7HlJKxKlAEKVYxspt+ilMzvBh4CJK9+Mfo9kMSgg+H/kb729pNFVEJwANwuAUn4a6RVkHJNQoxOSV1XLH5Djt1yO5kxLIhMCvm2VjvQIAteB63HXgmLqR+laK4Pj3eHmv6s0owVnfA3+w9/JrHCKMtzNmdtZ3YZt8I5fe054HxgjYSu+UEDxqFKm6uynCJN84wbBNhrO+hzDO8Ut7AFSOjmei72uzQE390QlAgyCE4G/H1a8Sa1QCMA1i3MxflwB0PAt936zNTUdCBXdNXg4u6PkWer4eCXorUip/lZ8PEkZCgJOeB9ug69f9pnszL/Fp6CPNxT0vgcdwLI7jrlJai5Js7QkjJJALJcAgVp/bRtLrWBynPRdBlOF8ojsBVePTyNeSoJrao1/BDUJKuRPHTc32IQDYBtrohio57ux4tg2Bapd/GHjw7WYvzY4XMX7dLJELCX36bQ4hSuTg09C/102REvh1E2C+Qy+GNBcv7tYMWjZOug7COMXXyznOJ0oadryIMQ1iVemPM8RpvrWOV7hyN/ZsjlFHu1JXjdcWbjSaKqMTgIaR5c2utjYJvoEmuW3y2i6ejTpO4yvkYZLh+9UCSZo3evdhlxACnPZdtN377ulXs2jtxbDtnYsoyZ/0sSAE+DRqoe2auJrFq72Wrf74Z1nGGS4mIVqOgaF2oN06tsHe7GESRGnjO5ua5qOHVxtGlknokeR6wDbwbDBq7O9ACND1LJic4mIaNTZAzoXEj+tAjwS9k2HbhsHoveXgItiKk+0GXcs4Rb9lweQMSXb72K5l4KhrQwiJ79fBTiVDn2MRpaAzgmHbhpDAzVyb0r0Xx+QYdux7IzxC3h/hynKBXKjxrkxI5Llcj3oVXM0ifBh4ZfwKGs1W0KFiw0hzAYk6DYscLq8dATIYrc3s/1MQooKqj0PW+OXg8SJGlOY47jgglOhz8Q10PBOWyfD7Ri0HWysX7OwJk8S3kmTqemlyuk4ARh0Hvm1gESW4mkV7rfo/xmyZrA3CpJSNldndNZxRDNs2HJMhXDlEm5zB5BQGp+CMghGlxFR0XAnIH53Xu0kCcOtvoakWQkoQABKrazDRcdFDdALQMCgl+opUE9grR4BMo7rmX5ugnIMpPg48/Bo3ezk4jDN8vw5w3HVg8s0TOAmo8xgExWbBoUkPWgbDx6GPXzcBTE535nMipYTBKejKaIxRistptUztxosYlKgkIBfy1fLBGkXPt9D1LeS5wI/rAMmqoxMlGaIX/pSUEpicwuTsNlGgBJbBkQsJRokuulUIuVrMHy9iSKgCGqMEBqPgnN7r/EiJ9XN3YJdXADoBaAyMEhz3XNgNCRYPBUrIi6Y/JqeQUta+CwCsLrRULQc33Tk4WwUbg5aFjvf0SJCUqlpVLPELIf5YJuaUgvDD6iaoRXmCD0MPaSZ29vrPcgHPNtDxTORC4vvV4lmt/rK4nkeglGDQtiGl3OlydFPwbLU/QQhwNY0wDzdPnMTKjDN6YvzM4BSnPReM0YM6P6uGuoaqZPmlBJkzlcgZjIIzAs5UgmBwdq8wVzwmJX92gpqATgAagLuSqNPUD0YJRP58AtCEEaDHOOo6MBbNdQ4uuJ7HmEeZakcXQf5q5vi1FBXMQ6MYw7B2WNjIJWAbFPNlsl42riqX0xAEwLDtQEi1jKr5E4NTHHVU920Z5zuVUk0zge9XAY572hOkDIr62SRIMA2SV+2YFSNcT53tBi+SAwpOybpzUHR/1M+V659NyJ9eIHVAv1prDCFKou6haoamPlBKgBcmYWyzuV2drmfBMhjOJ8vSZ613SfLOcSdDVxcBAL5jYvGGKu5zMKJGQaoe/BdcTEOcUIKjjo1zKV9tYnYIFGNSHc9UgfmeFrjFyvPkpW6fZnuo+4XENEgwWSYbFVReIs3Ek68bupItVuNgRCUIq+4BZ+TeqKZQhjjqPl9BdAJQUwxGcdJ3tRlJjZHydXsAb5WqqwOEKNOjD321F7CrOe+6s8sKeJ14SbP/LRiMYRHWqwv1e7zEWd/DcdfB73G4sdtwE2k5JvotFXxfTEMsShiRup7HiDOBI+3dsDOKFcdFlGK8iPcuKCGkRJLl91TD7sKKhGC1c1AkCOYqQSiQAKRQo71lNQ90AlBDtMxgM5CQLyoBmbz5gR8BYHC18Pm74cvBb8XYQeBbR7a9/KoWtFHLKvrv8RJnAw+nfVd5UJQkVVo2lsEwbNswOUWw8k4ok0WYIs0ETvvuoypCmrcjoTxXrudRadK8L6FcwvMn72O3+wdk9f5tgvBw/wB4XIlqW+gEoEZwRnHSc2utCa+5heBlLwDTOIzAjxDVWj1bLQfr2eZbDiEJfC3b9pDoeBaEkE9W86qMkBIXkyU+Dv2DdKDmjKLjmuh4JpI0x7eroDLywnGa4/tVgJOu0xgVtzKRUiLOBK5nUe0LRC/uH9xRKyrUiwxOd9IF1glATei45kr94TDlqprKSxNABmuOAtBLFL/hUcfGhDd/Ofi1mMbhvAZeYtsjYrbBap1sKn8EVLYaugsMRtHzLfiOgSxX6llhklcm+C/IcoEfNwFGbQe+Y5R9OLVESGXCdjWPENawS/cW0lwgzQUe9rEck2PQtmHw7e2D6QSg4nBGcdR1YK1GAHQM0BwIIS/uANgmO7jAjxCCrl84B4eNXg5+DWZDVaCqAGcE4ZbdhfeJyRnyLZujVZWHgf/5eIkgztB2TQzbNpJMvEnmc5dIqfYRklygr8d2X02h5X8zjxstFb0JYZLh+9UCvm2g37LAKH13PKgTgArTcgwM2vbKpEIHAE3kpQXfQx3/IABc28AHRg9+OVgvACu2nQj6jgFCCJY1XqB1LI402/25oWaUKUyDrbuSkyDZS9Xd4KvA3zaQ5QLnD0YEZ8sEjsUx6thIsqdnr8tksoiRpDmOe65W83qGQib5NVr+h8oiSrGIUrTd26X3t5pE6gSggjBKMOo4cC399DQd22D4ctTC1Sz6YxSBvqJD0GSK5eBPQx8/b5a1nNPeBoeyB/ISLxnmbUrxcIwQ/Gm9Vg9MTnG9RQUjRglMgynXW6b8F+46WReJOCUEbdfEbJnsLBEwV4G/ZxvIxW3F/zHOx0t8Gvk46amF6CoWDJaxquCe9b2Dvq4/RnEujoME0yA++K7va5gtEyzCFB3PRNezAGw+JqojzIrhWhxHHUeP+hwIhBAwokyx4sTA5exW3UAHfsXIG8GHgYuL6Z9JUtOhlLyoFHUobDsBCKIUEg5c28A0qN++SeEP8paxF0qKQF8tGNqryn6hVy6EhJASWS4xW6ZYxtkfUqPDjg3fMdB2TUyXCSaLeCuBt8Ep+q8M/O/y7XKBv45bOO27+HG93PrC+DZIM4FvVwuc9FzYurMHQAX/02WMySLZ+jnedISU625J11P+F5vsiZJ//zXVf/EKQAlRF1RbLwsdOtMgwXgRw78zAqZRjBfxQS0HU0LQb1lou+bBLwInmVJW2SYfBx5yIfFrvDun2F3R9Sx0fRN/P58/+T2EEDW6wxkMrir6FmfrQF9CBftpliPNJMIk23jmurhvUUKUKVPwtkRAVfxteDZHLiSupuGrAv+Hj/Fh4GEZZ3k5lTsAABiCSURBVDgvWQ70JQ7dNExCSabezKNKdmzqCGcqeX7t0rlOACqAY3IcdR1QSnSwp1lVrgjSXGx1478JSABBmOJiWu2b+7ZhlKDrWWh75sG+HqIkw8+b7QbqhafKf5zPK1kxfo7jrgOD03VSZHIG01DygbbJ7umKS6l8R9JMIM0loiRDEKfI8+39zsO2jZZjACCr0aDXJQImZ+i3TLiWmvG/nkUbB/53aTkmRh0b1/MI06Dac+TFsR4ShWrT9SxCWjHlpqZgGQyDlgXbfH7IRycAJUJW1b2Oa5Z9KBpNbZBQrfRfN8HBVY4oJei4JrqeCRyYydAyzvB7y5V6Sin+OvL/WCytOrbBcNJ3AagK/l0xASmVBGWaC0RpjmWU7XV/RiUCJgjBsx0By2Do+RZca1Xxn4UIovcvZA/bNtquWRtzNNtgOO65jd8LkACSNMdVA7T864JjcQxaFgzOHi0c6QSgBCgh6yeGMV3h1Wg2RUo1//hrvERygDeTIhHoeNaLXhJNYbGjzs+XoxaCKMXV7ClrnvIxOYNjcbgWg23wdeKXC4kkzRFnAlGSVcrReNC20V4nAjEmQYJcyHuBf5YLXM+jrQT+gAp4TrourudRrVRklMmnA4OxxiX1RUJ6NYv+2CPR7AffMdD3/5QO1QnAHqCEwDYZLENdxPXyj0bzfoplp/NJiGWcghACSlRVnBACCvW2cBm+/74KKOvegiYrNZauZzR+WXi2THYSpB/3XDgGw98vnp6l3zeMqiKRa3K4Nl/L/GW5QJwJzIKkNsFU0REAgDTLYRpsHRBuO2H566iFZZzVckSQEOCo48BryB6gBJDncpXg1ae71mQKxaD1fVInANuHrAJ++0HAf+hLfBpNlZASuJpFlTMPeiut1WiQ8YK3RB2RUFXkm/n2F8Btg+Fs4OHHdVDaaAIhahfMMRlc21g/h0JIxGmORZxhXqOK9mMM2jZck+Nm/r4Z/6f4OPDAGMW3y0Wt1GQ4o+B3JgE6nrmWAH9J0UVti1WLojurtfyrCSVknQhoGdAtcDfgdy2+Nu55ePLq4F/zVooLvRByreCheR+EAMO2GkW4nIa1ChoeY75MMF8m8GwDXc+EZbBKBghvZVdPT5TmEFLCtfheE4CiI+zduWcIKZGmAuMwxjRolizi9SzC9Y4eu9+yYRoMP66Dyv7NKCWw7ixqF8ZqRXdHCAmQB6ZOqw5nUUEvvGGUPDABZ3T1lsBgFIzS9dfvsok05FuRq/+MFzGmS63lX1XuJmc6AXgDrw/4SzpATSMoXk9SAosoQRjnaLkGbIPpZHJLEELgWgyfRj7OJ0tESf33CYIoRRClcC2OrmfBNhuQCMjdJQCAkhh1LY7xIlYa+ZyCc4okFVtboGWUwLMNVem3VOAnV1r78zDFJIjXHiCa12MbDB3XxPW8GsulxetHuSaTlTrTrSKTkBLkkQX+xwo7BLi3QC2khMgl8Ipf836CoN4aDz6++zNVAL/5lIJcRf6zMMV4Hlc2AdPcJxdSJwCv4W7A71kc5hMjPTom07yXIlBLM4EgTrGMc0R3Zn2zXOBs4JV2fE2kMGM763uN8hlYxmop1DYYur6SWazzGOIuA4sgyjFoWfjrqHUvKPrHxRyMknepTbkWR9u9HevIcoEoyTEPk60tvx4yJz0XYZKVIvlp3XFNNg215/dQepU+ON8efvwS4o2vvVxI5OLlTIFRAsYo+J23aiyJgFMKSvHHftFtcUpiEWVay7+m6ATgBSgh+Dj0wBnVIz2arXP3NRUlOYI4QxClyJ5YTo3SHGGSwzH1IvkuKNRJzifhk89B3YjSHL/HIUweo+u93iSmWsidJgDTIEbfN+8F/7OlUq0ZtOxHnXCfw2AUvmOg45mghEAIVSG9quFyapU563uQwM6Xfs1HRneKPQ0V6Kvr+N2IQH38/hhh1xX1IlF4KX1iK1dyztRbxgiCBggpHDI6AXiBYcdeZ7863tdsg/U8v5QIogzhqlL72gv9eB7B0V2AnWEZDJ+GHi6mzVKvSDKBi2mI8SJGxzPRrpH/CCFk5zPFaS5g8tvEer3ASFSV+fvV4tlghxAC3+ZoOQZsk0NKtcB7s0judfEOgUIAw+QUUSqeLWq8lZ5vwzZXc/87qD6bnOGo68Dkt9Xv4hpNH3T+dxkaVKWyvk4UDuul3Gh0AvAMLceA3xBJLk01yHKBRfTnaM8mqC5ABucFlz/N2yGE4LjrYBFxXE6j2rnEPke6kmAsEoGOa9WiuLGLIO8ucXqbAIRJdmsiterSnfTcR5dMLYOpe4VjgBKCLBcYBzHGO1AsqiqMEri2Acdk8CwDhKxm3QmBa0kMWhbSrLj2Ze+e1bcMhq5n4GYe72Tuvzj/+QNFrU3Hd7ZBk649mmqhI4gnMBjFsOOUfRiaBvCa0Z5NGc9jOAN9+u4azzJgDznOJ8tKLBhuk1xI3MyVQZNyF652IrDrUYgsF2slE5MzfFh12Yog0OAUx10Hv8ZLUErQcgy0XSW7KqVKGq7n0UEs8t6TLbUMGJyuAtXb5dZ1sLx6a3CKrmeh51vIhUAQZes9lU057bmIM4FJsJska9SxwVn5TttVqf5rmomOIJ7gpOfWWzVDUxpSrpRYYjXes4vAJUpzhHEG29SKQLuEEIAzgg8DDzeLGJOGLAjfRQglCzcJErRdEz3PXJupVYldJwBBlCmllDsjHwTkXtXXsTg+Dv31WEiaqW7KIeidF7KljsnW3ce76lKveb0U38IoRctVY2gSwHLVFQ3i9MVOz4eBmvs/Hy/f/Ls8R9s1K9P514o6ml2iE4BH6PvWvZuARrMJhADjPUj6jRexVgTaIz3PhGuqbkATK3NSSkyDGNMgVu7CvgVGyq+CFuw6FkqyHFez+10eSgk+D30AgFgZHHFGsYhSXM+arXxSuBE7JoNnm6DkEeW7dzw+ufPWsw24FseI2IjT247pw2toZ+Vv8fNmN+egaTAM2/bWH/etiOY3kzQlohOAB9gmR9e3yj4MTY2RUqLtGLje8QywVgTaL4Uc8OdRCxfTsFELwg+ZLRPMlgl820CvIgWRXe8APEbft0CpUvH5ejkHWSn6NJVirMezjUef8112hYrHLqQ1+76ldqbCFMskgxDq+Rgv4p0sVVNKcNpzt/647yHXGYBmh+gE4A6UEpx09dy/5n0QQtByzJ0nAIBWBCoDQoDjroN5yHE1CxvteLmIUixWpmI931qbHpbBvschHIvDsw0swnRdoe77NhZR2hivCJNTOJYB12SwTb42Hiy761P8fM4oOr6FLm6LcoW6UJYLZAJIsxyZkEgz8a6F2aOOs9bwrwo6AdDsEp0A3OGo4zzqxqfRbAohyvVz11VirQhUHi1HqZ78Hodbc4utKndNxfotJb+4z0CxDCUUSgi+Xi4gpcQJJTjquIjTvPbBv20y+LYBzzYeDXjLDv4f8vBwbINBGmydqdz9upASWSaQCYkky5ELtdyd5QJpJp5MIjuetTZqqxJN7jZpyqd6r/iS6NxxatRo3gshKkDcx5iIVgQqD84oPg69lZpOvQPD1xClOX7eBDA5Q8834e1xWZISstcuwN1zV8j/096ddqfNY3EA/8uW5ZWdLN1mvv+HmjPzbG3SJBDC4t2aFwZKs7QBLLDl+zt90ZOTEJKArSvdRQIMeFhEJ/v+qqRZAUfw2u1274MBr0YqBisn8gqUE5h3i5SBsmg5y8qAIMlyZEUZXI469Uv7lbKsOyFElfMndtaA4CZGNSr8IXrw7NPcZDenAOR8hh0bH4ZeoxdV+0iyHLePIf6+X5xsUT480yLNszkCx8LtNEScNP+kJy8k/nlYHtR+s2mevxsZynakrs3R822MOjZGnbre+6XWRebk/FofAJQDXijvn6jRcU8zbbVNQ4fqyhEc/7rowG3RSWKSFbhR1I5xF2MMXU+cvAaBMYaLnosoybGK9Sn6llLiZrpqRfvS36lbytPWiU+8SPu0PgAYdZwX0/4IqUrXO00AsDkFoNvF+TCUi4kPA6/Gu4qlvm+jH9jbybfHiJIcdzP1qTFSSlyeeDjjIBAwDHaSIOdXLEX3qPunCA/z5qc16YiBagCIWu3ZqnqFZ/OTLdBIO3GTwbbMk0yRjZIcjmXWeEurPbqegGubuH0MazcZ1jKNbTrNptXiMsoQJodNZQWAeZhA8HKXXlWrSMYYuMnQ9+2T1FvYlom+b+PhKTrrTqzgJj6PfUgJRGmGKMkRpzmiJK/kec2WCdKswFXfrd3wt7ajFCCiUmsDANNguKSWn+QEOq51kgBAcINu4DXBWLlw+zIOajcpdthxfhroxE0DPV+g6wtIKRHGGVZxmfKyzwLkYR7Dtsp2kqowBgwCG4soRZarDawuey7SLMfszH87ixvbjktln/4fv9+8kAiTDHFaIF4HB4dYxRm+Tlb4MPDATjT8TUpgESVYhGXQ6dkmen79inGrIp/9R0r54sR20+2KMQbT0HvmBDm/1gYAVwPvpxHvhKjS8QQe5pHyfvEqF17kcOOuA9/m+D4Lz76jZ1smfOf110mZwlS2r3XXU1mTrMAySrGMsne1Or2Zhvg09pWlrGyMOjZuH0Nlj9/3bXDTwN/3C2Xf471+9bs0DYbAsRA4ANa98pMsX58SFIjT/N0tauM0x98PS3wYeuCGoTwIYAx4WqXbzREVnXiedwE66rE2C3fIn67lUv5YuEvsLOxl+bnrf+vPlT++ZvNo8sfjrL9i+zXnvl4QvbVyxTAI7DJVgpAT2Iy6X4Rqiwjb0oGmiRzB8Xkc4PYxVDLF9L3GXedd/fs3myOCG7B8G4N3pgoVUuJmssLncaBsAckY1oO5UiWdbLhpYBDYmEcpUsWnDO97PmyvVazgJizTQNcrv0hKiSjNESc54qwMCt46PcnyAv/cL3E1cOFYXGkQkOXFdvHvWCaEinuyBL5NVz8t2l9baO8u4J9/jBBdtS4AcCwTg0DfY0ZST11XbQBwzgmt5PcYA0zG8HHo4XEZY3KGrk2+Yx30OvlpKqsv0PUEJCSiJMMyepkqlOZlZ6APQ6+qp/6CRBnM/HW/rHyhdtlzUUiJ+5m6E4Z9CG7uvYu9mwrIGIMrOBzL3H48LwpESY4kK7bBwaaeoJAS3yYrXPQcZV3MpATmO9fDnl/995FSYrJIqEUyIW9oVQBgMIargbqbEiFvUbK7tfv43Kz0uJuo0/NtuILj+2N40h3mcUWzThgDGBg824JrW2BwkGQ5llG2TRUKkwwPT5Gy+SoM5YnXIBCVBlOBY8ERJr4+LCt7zGNxXk061W5QYBoGfMeAt1MLkuaboKAMCO5mEdJcYqhgw4yxHwGAaTAlA+XyQmLWguF8hByqVQHARd+lNAlyFqqLuSyTVZvwSpRhKAPCz+MAD/PTFAj3/LKdZdU2jyi4CcsvT1fzvMAyLtOE5mGCwLGUFKczVnYEWoTvq0/4HYMxjLsOwjhDdIKi/ffiCu9Zu38XyzTAHQbA2p76xGmOvJCV3zd305BUdOKTEpgsaPFPyK+0pgF+xxXwWzSgh9SL6nRSYakv2iPV2cwMGHcdXPVdpQ0JDMYwCGzlseHmRzBNA11P4HrgoeOWbUFVvf4lgIteNacMo64Dxsqc8bo49Yya5x2AbMus/LUppfwpHfJ5559NStdsGeNhHh/U6jTNC+U1V4Q0XSsCAMs0MK7oJkHIIVT3EbctCm6byrM5Po99OEJNmljPF+c/GFJVEIxykXrsLrJjmei4Fu6e6rVrrLqb0ntUHZsyxrCIysV5xxN4frjAGEOU5Oi4AsOOfVAAQsPNCPm9819dTuB64J3/BkhaTWVHCWPdM5o0U9nz28DHof9Tj/cqbDranHs+hOrvPuzYR70HLvsu4jTHIqzPvAagzP/XrRlNmGTbovGe93ruvyNMGAbb+3UjJRAlGUIF3aEI0Y32AcAwsGFVVERFyKFUlgAIen033mZ93nljQXSoYWBrt4B8DQO20433NQjKnv8303p0/fnJO1q2Nk2aFej5NkYdB4JXe+rFGHBfs1McQupK65WDa3P0qeUnqQGVRcDCMl9MlCTNFDhWZcW6tmUicC3tFpCvYYyh44q906gsXp6QTJcx8uL8Pf+fm4dJraZIV6HjWhgGAt2Kg10JYBGmlRSEE9IG2gYApsFw1XfP/TQIAaC2BsAy9z8qJ/UkUQYBVdgM/WqTi+5+1/yrvoe8kJieYS7De90/RVoVtJaFxqzytDQG6vxDyD60DQCu+p7SzhqEvNfuqHgVqABYHwzlDumxPJvDtsxW7P7v4iZ796DHridgcQPfJvXp+f+W77OQBlr9gpTA4zJ+c8IxIeQlLQOAnr//UTAhKimtAbC0fBu3lm2ZR9ctjTrt7HrG1i1Pf9c9xzQYhh0bqyhDkjVj0XgzXSFOc0r3e8PjUq9UKUJU027lILjZ2psfqan1jC4VDIPRSZdmpDzuFGCzs91WUr499Zgxhp4v8GnkQ0rg9rE+Pf9/R8pyRkHWkIDllKbLWPmwRUJ0o9VdgjHgekB5/6RmpFSWAlR1Fw1yfowBXfewvvaMMQxb3viAsbIBxG4thWmUJwP/vggwDBwkWYG/7uuf+vNcUUh8nSwp1WVHUUjMlpT7T8i+tEoeHnWck09OJOS3GIOqBiOCG5BSnr3PO6mWYTD4joVltF/xZ98XlXURarpR10aaF+h6Ah3XQiEl5mGKh6dmD4nKC4lvkxU+jX0wsNbVeTz3sIhbV+xOSBW0CQA8mx89DZIQJRSeAFjcoMW/pjrufgHAZpeblAzG8GnkI8sl7mYR5jUb8nWMNC/wdbLCx6GHNvcAy/ICc83apBJyKlpsl3PTwCW1/CQ1xRhT1gbUtigFSFeezfeabpsXEg/zGIWUVCgKbAPj6TLWavG/kaQ5bqbNqWFQ4b7hpzmEnJMWAcBV36VCSFJrqo6oBaW8aUtKic6etQCzZYw/vi/wuIghFZ48NclF19E2UI6S9gYBcZpjFVNrVEIO1fjVwyCwtb24E32oOAEwDUb53hpjjKFzwLRUKSWmixh/3C0wWyYUBAC4Hnh7naY0ySrO8H0WnvtpnBzt/hNynEYHAAajnFfSDCoWYdQBSH+WaRy8wVEUEpNFjD/vFnhqeZ60aTBcD7xzPw1lFmHaqgXxMk4Rp/m5nwYhjdboAKCQZfsv2uAidaeiRbWwDMr11tyxMwGAsjbg/inCn3cLLNZFxW28ZtqW3jNinlYJpot2tMOczNvxcxKiUqMDAACYLBLkqnosElIRFScAlmm0uP9HOzBWBgBVlDhleYHvjyH+vl8gbGnudM8XCI4MqOpsutCz4HmXlBLXfQ8Opf4ScpTGBwBSSnyftefokzSTihoAqn1pi3ImQFWSrMDN4wp3Lb1uXvZcrd87d7MIyyjVtvaDMQaLG/g48jHs2K2fg0DIoRofAABAlGStz3El9abiXiw0XsSQH46ZDPwrPc/SdpH4K1KWRcE6F9DfPoaI0lz7v2/ft/FlHMCibmiE7E2bd81kHqNQkWhNyJFU7P5zSv9pFUeYlU457/k2hGW2cogcY4DBgGvNZ8fcTEMkWaFlnZDEj7RK0zTw5SKgQaCE7EmbAKCQspWt0Ej9Kdn959q8dck7HVsMvMFNA8Og3YslxhgcwTHq6NtFTkqJb9MVslyPIGBzHc0Lifkqwd26sP2/N094XCYYdx1c9T2aCUTIO/FzP4EqreIMyyiD72j1YxHyguAmpJSt3MFtq45rVdLl5aLn0OtmrefbiLMCizA991NRoigkvj4s8WnkV3qCdEqFlAjjDGGSI0wypNnLph+TeYS8kBgGNr5cBLh9XCFKqE0oIb+i3Ur5/imEKwKt8ztJsxybAmTxshe84AZcwSG4QQu4FuKmAUdwRMnhHXwC14IrtLvsH+Wy5yLNCm37yueFxLfJCh9HfiOHoRmsHHiY5cWri/+N2TKG4AwdV+Dj0Md0EbemLSohh9DuTrDpeX2peX4naY591v98PfjJ5gYcYUJYJh1pEwCbmQCHBwAGYxh39e2Df4zrgYe/7hfa1pGlebEOApqZIuMIDscykeYFZsv0zVan908RHMFhmQb6gQ3f4bidhkhzahVOyHPsP99mWl7xPgw8uLZ28Q1poCjJ8HWyevFx0yjzkMV6h98RHJsNOglQkS951f9u5wedKl30HHQUdBPSgZRAlGb49sr7VCeOMPFh4De6daaUZX3D4zLB0yp58V4Q3MTnsb/9XAB4mEfUKZCQZ7QNALhp4Ms4aPSFjuhhFWX4/hTCscxtKo8j+PY4nhb7ZB93TxHmey5mXMHxYegpekZ6kBKYrWLtp8x6Nsf1oPmvhUJKMJQTkGersoaj61noeWVh9+69X0qJKM1x+xhqe8pDyL7+D2Dbl+ZxtsNQAAAAAElFTkSuQmCC;" vertex="1" parent="1">
          <mxGeometry x="30" y="200" width="768" height="469" as="geometry" />
        </mxCell>
        <mxCell id="GaV9kBNqf7M6tbpTA97o-2" value="Berlin" style="text;html=1;align=center;verticalAlign=middle;whiteSpace=wrap;rounded=0;fontSize=20;fontFamily=Comic Sans MS;fontColor=#003366;" vertex="1" parent="1">
          <mxGeometry x="350" y="320" width="60" height="30" as="geometry" />
        </mxCell>
        <mxCell id="GaV9kBNqf7M6tbpTA97o-3" value="" style="ellipse;whiteSpace=wrap;html=1;aspect=fixed;fillColor=#0000CC;strokeColor=#82b366;" vertex="1" parent="1">
          <mxGeometry x="540" y="498" width="10" height="10" as="geometry" />
        </mxCell>
        <mxCell id="GaV9kBNqf7M6tbpTA97o-4" value="" style="ellipse;whiteSpace=wrap;html=1;aspect=fixed;fillColor=#0000CC;strokeColor=#82b366;" vertex="1" parent="1">
          <mxGeometry x="530" y="470" width="10" height="10" as="geometry" />
        </mxCell>
        <mxCell id="GaV9kBNqf7M6tbpTA97o-6" value="Maramures" style="text;html=1;align=center;verticalAlign=middle;whiteSpace=wrap;rounded=0;fontSize=20;fontFamily=Comic Sans MS;fontColor=#003366;" vertex="1" parent="1">
          <mxGeometry x="568" y="450" width="60" height="30" as="geometry" />
        </mxCell>
        <mxCell id="GaV9kBNqf7M6tbpTA97o-7" value="Targu Mures" style="text;html=1;align=center;verticalAlign=middle;whiteSpace=wrap;rounded=0;fontSize=20;fontFamily=Comic Sans MS;fontColor=#003366;" vertex="1" parent="1">
          <mxGeometry x="553" y="485" width="160" height="30" as="geometry" />
        </mxCell>
        <mxCell id="GaV9kBNqf7M6tbpTA97o-8" value="" style="ellipse;whiteSpace=wrap;html=1;aspect=fixed;fillColor=#0000CC;strokeColor=#82b366;" vertex="1" parent="1">
          <mxGeometry x="559" y="505" width="10" height="10" as="geometry" />
        </mxCell>
        <mxCell id="GaV9kBNqf7M6tbpTA97o-9" value="" style="ellipse;whiteSpace=wrap;html=1;aspect=fixed;fillColor=#0000CC;strokeColor=#82b366;" vertex="1" parent="1">
          <mxGeometry x="336" y="338" width="10" height="10" as="geometry" />
        </mxCell>
        <mxCell id="GaV9kBNqf7M6tbpTA97o-10" value="Cluj Napoca" style="text;html=1;align=center;verticalAlign=middle;whiteSpace=wrap;rounded=0;fontSize=20;fontFamily=Comic Sans MS;fontColor=#003366;" vertex="1" parent="1">
          <mxGeometry x="390" y="480" width="160" height="30" as="geometry" />
        </mxCell>
      </root>
    </mxGraphModel>
  </diagram>
</mxfile>
